<?xml version="1.0" encoding="UTF-8"?>
<svg xmlns="http://www.w3.org/2000/svg" xmlns:xlink="http://www.w3.org/1999/xlink" width="402.12" height="628.32" viewBox="-28.56 -599.76 402.12 628.32">
<defs>
<style type="text/css">
.l65d44 {stroke: #2B3D26; fill: #2B3D26; fill-opacity: 0.5;}
.l235d4 {stroke: #0067A5; fill: #0067A5; fill-opacity: 0.5;}
.l67d44 {stroke: #875692; fill: #875692; fill-opacity: 0.5;}
.l69d44 {stroke: #A1CAF1; fill: #A1CAF1; fill-opacity: 0.5;}
.l122d16 {stroke: #F6A600; fill: #F6A600; fill-opacity: 0.5;}
.l93d44 {stroke: #008856; fill: #008856; fill-opacity: 0.5;}
.l78d44 {stroke: #F6A600; fill: #F6A600; fill-opacity: 0.5;}
.l236d0 {stroke: #E25822; fill: #E25822; fill-opacity: 0.5;}
.l66d44 {stroke: #F3C300; fill: #F3C300; fill-opacity: 0.5;}
.l68d44 {stroke: #F38400; fill: #F38400; fill-opacity: 0.5;}
.l95d20 {stroke: #654522; fill: #654522; fill-opacity: 0.5;}
.l70d44 {stroke: #BE0032; fill: #BE0032; fill-opacity: 0.5;}
.l94d20 {stroke: #8DB600; fill: #8DB600; fill-opacity: 0.5;}
.l68d16 {stroke: #E25822; fill: #E25822; fill-opacity: 0.5;}
.l67d20 {stroke: #0067A5; fill: #0067A5; fill-opacity: 0.5;}
.l71d16 {stroke: #875692; fill: #875692; fill-opacity: 0.5;}
.l69d20 {stroke: #604E97; fill: #604E97; fill-opacity: 0.5;}
.l68d20 {stroke: #F99379; fill: #F99379; fill-opacity: 0.5;}
.l71d20 {stroke: #B3446C; fill: #B3446C; fill-opacity: 0.5;}
.l70d20 {stroke: #F6A600; fill: #F6A600; fill-opacity: 0.5;}
.l70d16 {stroke: #F3C300; fill: #F3C300; fill-opacity: 0.5;}
.l64d20 {stroke: #848482; fill: #848482; fill-opacity: 0.5;}
.l81d4 {stroke: #882D17; fill: #882D17; fill-opacity: 0.5;}
.l64d16 {stroke: #DCD300; fill: #DCD300; fill-opacity: 0.5;}
.l65d20 {stroke: #008856; fill: #008856; fill-opacity: 0.5;}
.l66d20 {stroke: #E68FAC; fill: #E68FAC; fill-opacity: 0.5;}
.l67d16 {stroke: #654522; fill: #654522; fill-opacity: 0.5;}
.l64t59 {stroke: none; fill: #B3446C;}
.l64t5 {stroke: none; fill: #604E97;}
.l67t5 {stroke: none; fill: #DCD300;}
.l68t5 {stroke: none; fill: #882D17;}
.l69t5 {stroke: none; fill: #8DB600;}
.l70t5 {stroke: none; fill: #654522;}
.l71t5 {stroke: none; fill: #E25822;}
.l83t44 {stroke: none; fill: #654522;}
</style>
<g id="sky130_fd_sc_hd__tapvpwrvgnd_1">
<polygon id="0x5a067104eed0" class="l68d16" points="1.05,-0.9 3.6,-0.9 3.6,1 1.05,1"/>
<polygon id="0x5a067104efa0" class="l68d16" points="1.1,26.2 3.75,26.2 3.75,27.65 1.1,27.65"/>
<polygon id="0x5a0671217760" class="l94d20" points="0,1.9 4.6,1.9 4.6,9.75 0,9.75"/>
<polygon id="0x5a0671217830" class="l94d20" points="0,25.3 4.6,25.3 4.6,29.1 0,29.1"/>
<polygon id="0x5a0671217900" class="l93d44" points="0,-1.9 4.6,-1.9 4.6,1.9 0,1.9"/>
<polygon id="0x5a06712179d0" class="l93d44" points="0,13.95 4.6,13.95 4.6,25.3 0,25.3"/>
<polygon id="0x5a0671217aa0" class="l64d20" points="-1.9,13.05 6.5,13.05 6.5,29.1 -1.9,29.1"/>
<polygon id="0x5a0671217b70" class="l66d44" points="1.45,5.55 3.15,5.55 3.15,7.25 1.45,7.25"/>
<polygon id="0x5a0671217c40" class="l66d44" points="1.45,16.45 3.15,16.45 3.15,18.15 1.45,18.15"/>
<polygon id="0x5a0671217da0" class="l66d44" points="1.45,21.1 3.15,21.1 3.15,22.8 1.45,22.8"/>
<polygon id="0x5a0671217e70" class="l65d44" points="1.45,3.2 3.15,3.2 3.15,8.45 1.45,8.45"/>
<polygon id="0x5a0671217f40" class="l65d44" points="1.45,15.25 3.15,15.25 3.15,24 1.45,24"/>
<polygon id="0x5a0671218010" class="l68d20" points="0,-2.4 4.6,-2.4 4.6,2.4 0,2.4"/>
<polygon id="0x5a06712180e0" class="l68d20" points="0,24.8 4.6,24.8 4.6,29.6 0,29.6"/>
<polygon id="0x5a06712181b0" class="l67d44" points="1.45,-0.85 3.15,-0.85 3.15,0.85 1.45,0.85"/>
<polygon id="0x5a0671218280" class="l67d44" points="1.45,26.35 3.15,26.35 3.15,28.05 1.45,28.05"/>
<polygon id="0x5a0671218350" class="l67d20" points="0.85,0 3.75,0 3.75,8.1 0.85,8.1"/>
<polygon id="0x5a06712184d0" class="l67d20" points="0.85,14.7 3.75,14.7 3.75,27.2 0.85,27.2"/>
<polygon id="0x5a06712185a0" class="l67d20" points="0,26.35 4.6,26.35 4.6,28.05 0,28.05"/>
<polygon id="0x5a0671218670" class="l67d20" points="0,-0.85 4.6,-0.85 4.6,0.85 0,0.85"/>
<polygon id="0x5a0671218740" class="l78d44" points="0,12.5 4.6,12.5 4.6,27.2 0,27.2"/>
<polygon id="0x5a0671218810" class="l81d4" points="0,0 4.6,0 4.6,27.2 0,27.2"/>
<text id="0x5a06712188e0" class="l68t5" text-anchor="middle" dominant-baseline="central" transform="translate(2.3 27.2) scale(0.1) scale(1 -1)">VPWR</text>
<text id="0x5a0671218970" class="l68t5" text-anchor="middle" dominant-baseline="central" transform="translate(2.3 0) scale(0.1) scale(1 -1)">VGND</text>
<text id="0x5a0671218a00" class="l83t44" text-anchor="start" dominant-baseline="text-before-edge" transform="translate(0 0) rotate(90) scale(0.1) scale(1 -1)">tapvpwrvgnd_1</text>
</g>
<g id="sky130_fd_sc_hd__decap_8">
<polygon id="0x5a0671215950" class="l236d0" points="0,0 36.8,0 36.8,27.2 0,27.2"/>
<polygon id="0x5a0671215a20" class="l68d16" points="1.45,26.35 3.15,26.35 3.15,28.05 1.45,28.05"/>
<polygon id="0x5a0671215af0" class="l68d16" points="1.45,-0.85 3.15,-0.85 3.15,0.85 1.45,0.85"/>
<polygon id="0x5a0671215bc0" class="l64d16" points="1.45,26.35 3.15,26.35 3.15,28.05 1.45,28.05"/>
<polygon id="0x5a0671215c90" class="l122d16" points="1.45,-0.85 3.15,-0.85 3.15,0.85 1.45,0.85"/>
<polygon id="0x5a0671215d60" class="l67d20" points="36.8,0.85 35.95,0.85 35.95,8.55 17.35,8.55 17.35,13.75 0.85,13.75 0.85,0.85 0,0.85 0,-0.85 36.8,-0.85"/>
<polygon id="0x5a0671215e90" class="l67d20" points="36.8,28.05 0,28.05 0,26.35 0.85,26.35 0.85,15.45 19.05,15.45 19.05,10.25 35.95,10.25 35.95,26.35 36.8,26.35"/>
<polygon id="0x5a0671216460" class="l81d4" points="0,0 36.8,0 36.8,27.2 0,27.2"/>
<polygon id="0x5a0671216530" class="l65d20" points="1.35,16.15 35.45,16.15 35.45,24.85 1.35,24.85"/>
<polygon id="0x5a0671216690" class="l65d20" points="1.35,2.35 35.45,2.35 35.45,7.85 1.35,7.85"/>
<polygon id="0x5a067104cf60" class="l78d44" points="0,12.5 36.8,12.5 36.8,27.2 0,27.2"/>
<polygon id="0x5a067104d030" class="l93d44" points="0,-1.9 36.8,-1.9 36.8,10.15 0,10.15"/>
<polygon id="0x5a067104d100" class="l64d20" points="-1.9,13.05 38.7,13.05 38.7,29.1 -1.9,29.1"/>
<polygon id="0x5a067104d1d0" class="l94d20" points="0,14.85 36.8,14.85 36.8,29.1 0,29.1"/>
<polygon id="0x5a067104d2a0" class="l67d44" points="1.45,26.35 3.15,26.35 3.15,28.05 1.45,28.05"/>
<polygon id="0x5a067104d370" class="l67d44" points="1.45,-0.85 3.15,-0.85 3.15,0.85 1.45,0.85"/>
<polygon id="0x5a067104d440" class="l67d44" points="6.05,26.35 7.75,26.35 7.75,28.05 6.05,28.05"/>
<polygon id="0x5a067104d5c0" class="l67d44" points="6.05,-0.85 7.75,-0.85 7.75,0.85 6.05,0.85"/>
<polygon id="0x5a067104d690" class="l67d44" points="10.65,26.35 12.35,26.35 12.35,28.05 10.65,28.05"/>
<polygon id="0x5a067104d760" class="l67d44" points="10.65,-0.85 12.35,-0.85 12.35,0.85 10.65,0.85"/>
<polygon id="0x5a067104d830" class="l67d44" points="15.25,26.35 16.95,26.35 16.95,28.05 15.25,28.05"/>
<polygon id="0x5a067104d900" class="l67d44" points="15.25,-0.85 16.95,-0.85 16.95,0.85 15.25,0.85"/>
<polygon id="0x5a067104d9d0" class="l67d44" points="19.85,26.35 21.55,26.35 21.55,28.05 19.85,28.05"/>
<polygon id="0x5a067104daa0" class="l67d44" points="19.85,-0.85 21.55,-0.85 21.55,0.85 19.85,0.85"/>
<polygon id="0x5a067104db70" class="l67d44" points="24.45,26.35 26.15,26.35 26.15,28.05 24.45,28.05"/>
<polygon id="0x5a067104dc40" class="l67d44" points="24.45,-0.85 26.15,-0.85 26.15,0.85 24.45,0.85"/>
<polygon id="0x5a067104dd10" class="l67d44" points="29.05,26.35 30.75,26.35 30.75,28.05 29.05,28.05"/>
<polygon id="0x5a067104dde0" class="l67d44" points="29.05,-0.85 30.75,-0.85 30.75,0.85 29.05,0.85"/>
<polygon id="0x5a067104deb0" class="l67d44" points="33.65,26.35 35.35,26.35 35.35,28.05 33.65,28.05"/>
<polygon id="0x5a067104df80" class="l67d44" points="33.65,-0.85 35.35,-0.85 35.35,0.85 33.65,0.85"/>
<polygon id="0x5a067104e050" class="l66d20" points="32.85,26.15 3.95,26.15 3.95,11.25 17.15,11.25 17.15,14.85 32.85,14.85"/>
<polygon id="0x5a067104e140" class="l66d20" points="32.85,12.75 19.25,12.75 19.25,9.15 3.95,9.15 3.95,1.05 32.85,1.05"/>
<polygon id="0x5a067104e230" class="l66d44" points="1.75,22.55 3.45,22.55 3.45,24.25 1.75,24.25"/>
<polygon id="0x5a067104d510" class="l66d44" points="1.75,17.45 3.45,17.45 3.45,19.15 1.75,19.15"/>
<polygon id="0x5a067104e510" class="l66d44" points="1.75,3.9 3.45,3.9 3.45,5.6 1.75,5.6"/>
<polygon id="0x5a067104e5e0" class="l66d44" points="4.75,12.05 6.45,12.05 6.45,13.75 4.75,13.75"/>
<polygon id="0x5a067104e6b0" class="l66d44" points="9.7,12.05 11.4,12.05 11.4,13.75 9.7,13.75"/>
<polygon id="0x5a067104e780" class="l66d44" points="14.65,12.05 16.35,12.05 16.35,13.75 14.65,13.75"/>
<polygon id="0x5a067104e850" class="l66d44" points="33.35,3.9 35.05,3.9 35.05,5.6 33.35,5.6"/>
<polygon id="0x5a067104e920" class="l66d44" points="20.05,10.25 21.75,10.25 21.75,11.95 20.05,11.95"/>
<polygon id="0x5a067104e9f0" class="l66d44" points="25.2,10.25 26.9,10.25 26.9,11.95 25.2,11.95"/>
<polygon id="0x5a067104eac0" class="l66d44" points="30.35,10.25 32.05,10.25 32.05,11.95 30.35,11.95"/>
<polygon id="0x5a067104eb90" class="l66d44" points="33.35,22.55 35.05,22.55 35.05,24.25 33.35,24.25"/>
<polygon id="0x5a067104ec60" class="l66d44" points="33.35,17.45 35.05,17.45 35.05,19.15 33.35,19.15"/>
<polygon id="0x5a067104ed30" class="l95d20" points="36.8,13.45 17.35,13.45 17.35,14.75 0,14.75 0,9.75 19.05,9.75 19.05,9.25 36.8,9.25"/>
<polygon id="0x5a06712128b0" class="l68d20" points="0,29.6 0,24.8 36.8,24.8 36.8,29.6"/>
<polygon id="0x5a06712128b0" class="l68d20" points="0,2.4 0,-2.4 36.8,-2.4 36.8,2.4"/>
<text id="0x5a0671215fc0" class="l68t5" text-anchor="middle" dominant-baseline="central" transform="translate(2.3 27.2) scale(0.1) scale(1 -1)">VPWR</text>
<text id="0x5a0671216050" class="l68t5" text-anchor="middle" dominant-baseline="central" transform="translate(2.3 0) scale(0.1) scale(1 -1)">VGND</text>
<text id="0x5a0671216340" class="l64t5" text-anchor="middle" dominant-baseline="central" transform="translate(2.3 27.2) scale(0.1) scale(1 -1)">VPB</text>
<text id="0x5a06712163d0" class="l64t59" text-anchor="middle" dominant-baseline="central" transform="translate(2.3 0) scale(0.1) scale(1 -1)">VNB</text>
<text id="0x5a067104eda0" class="l83t44" text-anchor="start" dominant-baseline="text-before-edge" transform="translate(0 0) rotate(90) scale(0.1) scale(1 -1)">decap_8</text>
</g>
<g id="sky130_fd_sc_hd__buf_1">
<polygon id="0x5a067104ab40" class="l236d0" points="0,0 13.8,0 13.8,27.2 0,27.2"/>
<polygon id="0x5a067104ac10" class="l94d20" points="0,14.2 13.8,14.2 13.8,29.1 0,29.1"/>
<polygon id="0x5a067104ace0" class="l68d16" points="1.55,-0.85 3.25,-0.85 3.25,0.85 1.55,0.85"/>
<polygon id="0x5a067104adb0" class="l68d16" points="1.45,26.35 3.15,26.35 3.15,28.05 1.45,28.05"/>
<polygon id="0x5a067104ae80" class="l64d16" points="1.45,26.35 3.15,26.35 3.15,28.05 1.45,28.05"/>
<polygon id="0x5a067104af50" class="l122d16" points="1.55,-0.85 3.25,-0.85 3.25,0.85 1.55,0.85"/>
<polygon id="0x5a067104b020" class="l67d20" points="12.95,24.65 10.25,24.65 10.25,15.6 11.15,15.6 11.15,7.6 10.35,7.6 10.35,2.55 12.95,2.55"/>
<polygon id="0x5a067104b130" class="l67d20" points="13.8,0.85 8.55,0.85 8.55,4.65 5.25,4.65 5.25,0.85 0,0.85 0,-0.85 13.8,-0.85"/>
<polygon id="0x5a067104b240" class="l67d20" points="9.45,13.9 8.4,13.9 8.4,17.05 3.45,17.05 3.45,24.65 1.65,24.65 1.65,15.35 6.7,15.35 6.7,8.05 1.75,8.05 1.75,2.55 3.45,2.55 3.45,6.35 8.4,6.35 8.4,10.6 9.45,10.6"/>
<polygon id="0x5a067104b340" class="l67d20" points="1.05,9.85 4.45,9.85 4.45,13.55 1.05,13.55"/>
<polygon id="0x5a067121a850" class="l67d20" points="13.8,28.05 0,28.05 0,26.35 5.25,26.35 5.25,18.75 8.55,18.75 8.55,26.35 13.8,26.35"/>
<polygon id="0x5a067121a960" class="l95d20" points="0,9.75 13.8,9.75 13.8,14.1 0,14.1"/>
<polygon id="0x5a067121aa30" class="l78d44" points="0,12.5 13.8,12.5 13.8,27.2 0,27.2"/>
<polygon id="0x5a067121ab00" class="l93d44" points="0,-1.9 13.8,-1.9 13.8,10.15 0,10.15"/>
<polygon id="0x5a067121abd0" class="l64d20" points="-1.9,13.05 15.7,13.05 15.7,29.1 -1.9,29.1"/>
<polygon id="0x5a067121aca0" class="l81d4" points="0,0 13.8,0 13.8,27.2 0,27.2"/>
<polygon id="0x5a067121ad70" class="l67d44" points="10.65,-0.85 12.35,-0.85 12.35,0.85 10.65,0.85"/>
<polygon id="0x5a067121aef0" class="l67d44" points="10.65,26.35 12.35,26.35 12.35,28.05 10.65,28.05"/>
<polygon id="0x5a067121afc0" class="l67d44" points="6.05,-0.85 7.75,-0.85 7.75,0.85 6.05,0.85"/>
<polygon id="0x5a067121b090" class="l67d44" points="6.05,26.35 7.75,26.35 7.75,28.05 6.05,28.05"/>
<polygon id="0x5a067121b160" class="l67d44" points="1.45,-0.85 3.15,-0.85 3.15,0.85 1.45,0.85"/>
<polygon id="0x5a067121b230" class="l67d44" points="1.45,26.35 3.15,26.35 3.15,28.05 1.45,28.05"/>
<polygon id="0x5a067121b300" class="l67d16" points="10.55,4.25 12.25,4.25 12.25,5.95 10.55,5.95"/>
<polygon id="0x5a067121b3d0" class="l67d16" points="10.55,17.85 12.25,17.85 12.25,19.55 10.55,19.55"/>
<polygon id="0x5a067121b4a0" class="l67d16" points="10.55,21.25 12.25,21.25 12.25,22.95 10.55,22.95"/>
<polygon id="0x5a067121b570" class="l67d16" points="1.45,11.05 3.15,11.05 3.15,12.75 1.45,12.75"/>
<polygon id="0x5a067121b640" class="l67d16" points="1.45,26.35 3.15,26.35 3.15,28.05 1.45,28.05"/>
<polygon id="0x5a067121b710" class="l67d16" points="1.55,-0.85 3.25,-0.85 3.25,0.85 1.55,0.85"/>
<polygon id="0x5a067121b7e0" class="l65d20" points="1.35,2.35 12.45,2.35 12.45,7.55 1.35,7.55"/>
<polygon id="0x5a067121b8b0" class="l65d20" points="1.35,16.95 12.45,16.95 12.45,24.85 1.35,24.85"/>
<polygon id="0x5a067121b980" class="l66d44" points="10.35,4.45 12.05,4.45 12.05,6.15 10.35,6.15"/>
<polygon id="0x5a067121ba50" class="l66d44" points="10.35,18.1 12.05,18.1 12.05,19.8 10.35,19.8"/>
<polygon id="0x5a067121bb20" class="l66d44" points="10.35,22.15 12.05,22.15 12.05,23.85 10.35,23.85"/>
<polygon id="0x5a067121ae40" class="l66d44" points="7.75,11.4 9.45,11.4 9.45,13.1 7.75,13.1"/>
<polygon id="0x5a067121be00" class="l66d44" points="6.05,2.95 7.75,2.95 7.75,4.65 6.05,4.65"/>
<polygon id="0x5a067121bed0" class="l66d44" points="6.05,18.75 7.75,18.75 7.75,20.45 6.05,20.45"/>
<polygon id="0x5a067121bfa0" class="l66d44" points="6.05,22.15 7.75,22.15 7.75,23.85 6.05,23.85"/>
<polygon id="0x5a067121c070" class="l66d44" points="1.85,10.75 3.55,10.75 3.55,12.45 1.85,12.45"/>
<polygon id="0x5a067121c140" class="l66d44" points="1.75,3.6 3.45,3.6 3.45,5.3 1.75,5.3"/>
<polygon id="0x5a067121c210" class="l66d44" points="1.75,18.75 3.45,18.75 3.45,20.45 1.75,20.45"/>
<polygon id="0x5a067121c2e0" class="l66d44" points="1.75,22.15 3.45,22.15 3.45,23.85 1.75,23.85"/>
<polygon id="0x5a067121c3b0" class="l66d20" points="9.95,13.9 9.85,13.9 9.85,26.15 8.35,26.15 8.35,13.9 7.25,13.9 7.25,10.6 8.35,10.6 8.35,1.05 9.85,1.05 9.85,10.6 9.95,10.6"/>
<polygon id="0x5a067121c420" class="l66d20" points="5.45,9.5 5.15,9.5 5.15,15 5.45,15 5.45,26.15 3.95,26.15 3.95,16.2 3.65,16.2 3.65,13.25 1.35,13.25 1.35,9.95 3.65,9.95 3.65,8.3 3.95,8.3 3.95,1.05 5.45,1.05"/>
<polygon id="0x5a06712128b0" class="l68d20" points="0,2.4 0,-2.4 13.8,-2.4 13.8,2.4"/>
<polygon id="0x5a06712128b0" class="l68d20" points="0,29.6 0,24.8 13.8,24.8 13.8,29.6"/>
<text id="0x5a067121c6f0" class="l68t5" text-anchor="middle" dominant-baseline="central" transform="translate(2.3 0) scale(0.1) scale(1 -1)">VGND</text>
<text id="0x5a067121c780" class="l68t5" text-anchor="middle" dominant-baseline="central" transform="translate(2.3 27.2) scale(0.1) scale(1 -1)">VPWR</text>
<text id="0x5a067121c810" class="l67t5" text-anchor="middle" dominant-baseline="central" transform="translate(2.3 27.2) scale(0.1) scale(1 -1)">VPWR</text>
<text id="0x5a067121c8a0" class="l67t5" text-anchor="middle" dominant-baseline="central" transform="translate(2.3 0) scale(0.1) scale(1 -1)">VGND</text>
<text id="0x5a067121c930" class="l67t5" text-anchor="middle" dominant-baseline="central" transform="translate(11.4 5.1) scale(0.1) scale(1 -1)">X</text>
<text id="0x5a067121c9c0" class="l67t5" text-anchor="middle" dominant-baseline="central" transform="translate(11.4 18.7) scale(0.1) scale(1 -1)">X</text>
<text id="0x5a067121ca50" class="l67t5" text-anchor="middle" dominant-baseline="central" transform="translate(11.4 22.1) scale(0.1) scale(1 -1)">X</text>
<text id="0x5a067121cae0" class="l67t5" text-anchor="middle" dominant-baseline="central" transform="translate(2.3 11.9) scale(0.1) scale(1 -1)">A</text>
<text id="0x5a067121cb70" class="l64t5" text-anchor="middle" dominant-baseline="central" transform="translate(2.3 27.2) scale(0.1) scale(1 -1)">VPB</text>
<text id="0x5a067121cc90" class="l64t59" text-anchor="middle" dominant-baseline="central" transform="translate(2.3 0) scale(0.1) scale(1 -1)">VNB</text>
<text id="0x5a067121cd20" class="l83t44" text-anchor="start" dominant-baseline="text-before-edge" transform="translate(0 0) rotate(90) scale(0.1) scale(1 -1)">buf_1</text>
</g>
<g id="sky130_fd_sc_hd__decap_4">
<polygon id="0x5a067104bc20" class="l236d0" points="0,0 18.4,0 18.4,27.2 0,27.2"/>
<polygon id="0x5a067104bcf0" class="l68d16" points="1.45,-0.85 3.15,-0.85 3.15,0.85 1.45,0.85"/>
<polygon id="0x5a067104bdc0" class="l68d16" points="1.45,26.35 3.15,26.35 3.15,28.05 1.45,28.05"/>
<polygon id="0x5a067104be90" class="l64d16" points="1.45,26.35 3.15,26.35 3.15,28.05 1.45,28.05"/>
<polygon id="0x5a067104bf60" class="l122d16" points="1.45,-0.85 3.15,-0.85 3.15,0.85 1.45,0.85"/>
<polygon id="0x5a067104c030" class="l81d4" points="0,0 18.4,0 18.4,27.2 0,27.2"/>
<polygon id="0x5a067104c5a0" class="l78d44" points="0,12.5 18.4,12.5 18.4,27.2 0,27.2"/>
<polygon id="0x5a067104c670" class="l93d44" points="0,-1.9 18.4,-1.9 18.4,10.15 0,10.15"/>
<polygon id="0x5a067104c740" class="l64d20" points="-1.9,13.05 20.3,13.05 20.3,29.1 -1.9,29.1"/>
<polygon id="0x5a067104c8a0" class="l94d20" points="0,14.85 18.4,14.85 18.4,29.1 0,29.1"/>
<polygon id="0x5a067104c970" class="l67d44" points="1.45,26.35 3.15,26.35 3.15,28.05 1.45,28.05"/>
<polygon id="0x5a067104ca40" class="l67d44" points="1.45,-0.85 3.15,-0.85 3.15,0.85 1.45,0.85"/>
<polygon id="0x5a067104cb10" class="l67d44" points="6.05,26.35 7.75,26.35 7.75,28.05 6.05,28.05"/>
<polygon id="0x5a067104cbe0" class="l67d44" points="6.05,-0.85 7.75,-0.85 7.75,0.85 6.05,0.85"/>
<polygon id="0x5a067104ccb0" class="l67d44" points="10.65,26.35 12.35,26.35 12.35,28.05 10.65,28.05"/>
<polygon id="0x5a067104cd80" class="l67d44" points="10.65,-0.85 12.35,-0.85 12.35,0.85 10.65,0.85"/>
<polygon id="0x5a0671214a00" class="l67d44" points="15.25,26.35 16.95,26.35 16.95,28.05 15.25,28.05"/>
<polygon id="0x5a0671214b80" class="l67d44" points="15.25,-0.85 16.95,-0.85 16.95,0.85 15.25,0.85"/>
<polygon id="0x5a0671214c50" class="l65d20" points="1.35,16.15 17.05,16.15 17.05,24.85 1.35,24.85"/>
<polygon id="0x5a0671214d20" class="l65d20" points="1.35,2.35 17.05,2.35 17.05,7.85 1.35,7.85"/>
<polygon id="0x5a0671214df0" class="l66d20" points="14.45,26.15 3.95,26.15 3.95,14.55 1.05,14.55 1.05,11.25 8.15,11.25 8.15,14.85 14.45,14.85"/>
<polygon id="0x5a0671214e60" class="l66d20" points="17.35,12.75 10.25,12.75 10.25,9.15 3.95,9.15 3.95,1.05 14.45,1.05 14.45,9.45 17.35,9.45"/>
<polygon id="0x5a0671214ed0" class="l66d44" points="14.95,4.25 16.65,4.25 16.65,5.95 14.95,5.95"/>
<polygon id="0x5a0671214fa0" class="l66d44" points="1.75,22.55 3.45,22.55 3.45,24.25 1.75,24.25"/>
<polygon id="0x5a0671215070" class="l66d44" points="1.75,17.45 3.45,17.45 3.45,19.15 1.75,19.15"/>
<polygon id="0x5a0671215140" class="l66d44" points="1.75,4.25 3.45,4.25 3.45,5.95 1.75,5.95"/>
<polygon id="0x5a0671215210" class="l66d44" points="1.85,12.05 3.55,12.05 3.55,13.75 1.85,13.75"/>
<polygon id="0x5a06712152e0" class="l66d44" points="14.85,10.25 16.55,10.25 16.55,11.95 14.85,11.95"/>
<polygon id="0x5a06712153b0" class="l66d44" points="14.95,22.55 16.65,22.55 16.65,24.25 14.95,24.25"/>
<polygon id="0x5a0671215480" class="l66d44" points="14.95,17.45 16.65,17.45 16.65,19.15 14.95,19.15"/>
<polygon id="0x5a0671215550" class="l67d20" points="18.4,28.05 0,28.05 0,26.35 0.85,26.35 0.85,15.45 10.05,15.45 10.05,10.25 17.55,10.25 17.55,26.35 18.4,26.35"/>
<polygon id="0x5a06712155c0" class="l67d20" points="18.4,0.85 17.55,0.85 17.55,8.55 8.35,8.55 8.35,13.75 0.85,13.75 0.85,0.85 0,0.85 0,-0.85 18.4,-0.85"/>
<polygon id="0x5a0671215630" class="l95d20" points="18.4,13.45 4.55,13.45 4.55,14.75 0,14.75 0,9.75 13.85,9.75 13.85,9.25 18.4,9.25"/>
<polygon id="0x5a06712128b0" class="l68d20" points="0,29.6 0,24.8 18.4,24.8 18.4,29.6"/>
<polygon id="0x5a06712128b0" class="l68d20" points="0,2.4 0,-2.4 18.4,-2.4 18.4,2.4"/>
<text id="0x5a067104c100" class="l68t5" text-anchor="middle" dominant-baseline="central" transform="translate(2.3 0) scale(0.1) scale(1 -1)">VGND</text>
<text id="0x5a067104c190" class="l68t5" text-anchor="middle" dominant-baseline="central" transform="translate(2.3 27.2) scale(0.1) scale(1 -1)">VPWR</text>
<text id="0x5a067104c480" class="l64t5" text-anchor="middle" dominant-baseline="central" transform="translate(2.3 27.2) scale(0.1) scale(1 -1)">VPB</text>
<text id="0x5a067104c510" class="l64t59" text-anchor="middle" dominant-baseline="central" transform="translate(2.3 0) scale(0.1) scale(1 -1)">VNB</text>
<text id="0x5a0671214a70" class="l83t44" text-anchor="start" dominant-baseline="text-before-edge" transform="translate(0 0) rotate(90) scale(0.1) scale(1 -1)">decap_4</text>
</g>
<g id="sky130_ef_sc_hd__decap_12">
<polygon id="0x5a066ffdf190" class="l236d0" points="0,0 55.2,0 55.2,27.2 0,27.2"/>
<polygon id="0x5a067070f560" class="l68d16" points="1.45,-0.85 3.15,-0.85 3.15,0.85 1.45,0.85"/>
<polygon id="0x5a0670664660" class="l68d16" points="1.45,26.35 3.15,26.35 3.15,28.05 1.45,28.05"/>
<polygon id="0x5a06704dc190" class="l64d16" points="1.45,26.35 3.15,26.35 3.15,28.05 1.45,28.05"/>
<polygon id="0x5a0670b3c1f0" class="l122d16" points="1.45,-0.85 3.15,-0.85 3.15,0.85 1.45,0.85"/>
<polygon id="0x5a06706c45d0" class="l65d20" points="1.35,16.15 53.85,16.15 53.85,24.85 1.35,24.85"/>
<polygon id="0x5a0670bdc8b0" class="l65d20" points="1.35,2.35 53.85,2.35 53.85,7.85 1.35,7.85"/>
<polygon id="0x5a0670c2b280" class="l78d44" points="0,12.5 55.2,12.5 55.2,27.2 0,27.2"/>
<polygon id="0x5a06710145a0" class="l93d44" points="0,-1.9 55.2,-1.9 55.2,10.15 0,10.15"/>
<polygon id="0x5a067074bd50" class="l64d20" points="-1.9,13.05 57.1,13.05 57.1,29.1 -1.9,29.1"/>
<polygon id="0x5a06701c8910" class="l94d20" points="0,14.85 55.2,14.85 55.2,29.1 0,29.1"/>
<polygon id="0x5a0670be7b30" class="l81d4" points="0,0 55.2,0 55.2,27.2 0,27.2"/>
<polygon id="0x5a06708ead10" class="l67d44" points="24.45,-0.85 26.15,-0.85 26.15,0.85 24.45,0.85"/>
<polygon id="0x5a06712d76f0" class="l67d44" points="29.05,26.35 30.75,26.35 30.75,28.05 29.05,28.05"/>
<polygon id="0x5a0671220320" class="l67d44" points="1.45,26.35 3.15,26.35 3.15,28.05 1.45,28.05"/>
<polygon id="0x5a0670c609e0" class="l67d44" points="1.45,-0.85 3.15,-0.85 3.15,0.85 1.45,0.85"/>
<polygon id="0x5a06712210a0" class="l67d44" points="6.05,26.35 7.75,26.35 7.75,28.05 6.05,28.05"/>
<polygon id="0x5a06700954c0" class="l67d44" points="6.05,-0.85 7.75,-0.85 7.75,0.85 6.05,0.85"/>
<polygon id="0x5a0670e059d0" class="l67d44" points="10.65,26.35 12.35,26.35 12.35,28.05 10.65,28.05"/>
<polygon id="0x5a0670447660" class="l67d44" points="10.65,-0.85 12.35,-0.85 12.35,0.85 10.65,0.85"/>
<polygon id="0x5a06704476d0" class="l67d44" points="15.25,26.35 16.95,26.35 16.95,28.05 15.25,28.05"/>
<polygon id="0x5a0671050c60" class="l67d44" points="15.25,-0.85 16.95,-0.85 16.95,0.85 15.25,0.85"/>
<polygon id="0x5a0671222630" class="l67d44" points="19.85,26.35 21.55,26.35 21.55,28.05 19.85,28.05"/>
<polygon id="0x5a0671222700" class="l67d44" points="19.85,-0.85 21.55,-0.85 21.55,0.85 19.85,0.85"/>
<polygon id="0x5a0671222520" class="l67d44" points="24.45,26.35 26.15,26.35 26.15,28.05 24.45,28.05"/>
<polygon id="0x5a0671222340" class="l67d44" points="29.05,-0.85 30.75,-0.85 30.75,0.85 29.05,0.85"/>
<polygon id="0x5a0671222410" class="l67d44" points="33.65,26.35 35.35,26.35 35.35,28.05 33.65,28.05"/>
<polygon id="0x5a0671222220" class="l67d44" points="33.65,-0.85 35.35,-0.85 35.35,0.85 33.65,0.85"/>
<polygon id="0x5a0671222040" class="l67d44" points="38.25,26.35 39.95,26.35 39.95,28.05 38.25,28.05"/>
<polygon id="0x5a0671222110" class="l67d44" points="38.25,-0.85 39.95,-0.85 39.95,0.85 38.25,0.85"/>
<polygon id="0x5a0671221f30" class="l67d44" points="42.85,26.35 44.55,26.35 44.55,28.05 42.85,28.05"/>
<polygon id="0x5a0671221d50" class="l67d44" points="42.85,-0.85 44.55,-0.85 44.55,0.85 42.85,0.85"/>
<polygon id="0x5a0671221e20" class="l67d44" points="47.45,26.35 49.15,26.35 49.15,28.05 47.45,28.05"/>
<polygon id="0x5a0671221c30" class="l67d44" points="47.45,-0.85 49.15,-0.85 49.15,0.85 47.45,0.85"/>
<polygon id="0x5a0671221750" class="l67d44" points="52.05,26.35 53.75,26.35 53.75,28.05 52.05,28.05"/>
<polygon id="0x5a0671221820" class="l67d44" points="52.05,-0.85 53.75,-0.85 53.75,0.85 52.05,0.85"/>
<polygon id="0x5a0671221630" class="l95d20" points="0,9.25 55.2,9.25 55.2,14.75 0,14.75"/>
<polygon id="0x5a0671221450" class="l66d20" points="51.25,26.15 3.95,26.15 3.95,11.25 26.45,11.25 26.45,14.85 51.25,14.85"/>
<polygon id="0x5a06712214c0" class="l66d20" points="51.25,12.75 28.55,12.75 28.55,9.15 3.95,9.15 3.95,1.05 51.25,1.05"/>
<polygon id="0x5a0671221530" class="l67d20" points="16.7,6.3 20.1,6.3 20.1,14.6 16.7,14.6"/>
<polygon id="0x5a06712213b0" class="l67d20" points="0,26.35 55.2,26.35 55.2,28.05 0,28.05"/>
<polygon id="0x5a06712211b0" class="l67d20" points="0.85,22 54.3,22 54.3,26.35 0.85,26.35"/>
<polygon id="0x5a0671220cd0" class="l67d20" points="0,-0.85 55.2,-0.85 55.2,0.85 0,0.85"/>
<polygon id="0x5a0671220da0" class="l67d20" points="34.9,9.5 38.4,9.5 38.4,22 34.9,22"/>
<polygon id="0x5a0671220bb0" class="l67d20" points="0.85,0.85 54.3,0.85 54.3,6.3 0.85,6.3"/>
<polygon id="0x5a06712209d0" class="l66d44" points="1.75,22.55 3.45,22.55 3.45,24.25 1.75,24.25"/>
<polygon id="0x5a0671220aa0" class="l66d44" points="51.75,22.55 53.45,22.55 53.45,24.25 51.75,24.25"/>
<polygon id="0x5a06712208b0" class="l66d44" points="51.75,3.9 53.45,3.9 53.45,5.6 51.75,5.6"/>
<polygon id="0x5a06712206e0" class="l66d44" points="35.75,10.25 37.45,10.25 37.45,11.95 35.75,11.95"/>
<polygon id="0x5a06712207b0" class="l66d44" points="1.75,3.9 3.45,3.9 3.45,5.6 1.75,5.6"/>
<polygon id="0x5a067121ffd0" class="l66d44" points="17.55,12.05 19.25,12.05 19.25,13.75 17.55,13.75"/>
<polygon id="0x5a06712128b0" class="l68d20" points="0,29.6 0,24.8 55.2,24.8 55.2,29.6"/>
<polygon id="0x5a06712128b0" class="l68d20" points="0,2.4 0,-2.4 55.2,-2.4 55.2,2.4"/>
<text id="0x5a0670f57f50" class="l68t5" text-anchor="middle" dominant-baseline="central" transform="translate(2.3 0) scale(0.1) scale(1 -1)">VGND</text>
<text id="0x5a0670880df0" class="l68t5" text-anchor="middle" dominant-baseline="central" transform="translate(2.3 27.2) scale(0.1) scale(1 -1)">VPWR</text>
<text id="0x5a0670b49fb0" class="l64t5" text-anchor="middle" dominant-baseline="central" transform="translate(2.3 27.2) scale(0.1) scale(1 -1)">VPB</text>
<text id="0x5a0670a37170" class="l64t59" text-anchor="middle" dominant-baseline="central" transform="translate(2.3 0) scale(0.1) scale(1 -1)">VNB</text>
<text id="0x5a067121fdf0" class="l83t44" text-anchor="start" dominant-baseline="text-before-edge" transform="translate(0 0) rotate(90) scale(0.1) scale(1 -1)">decap_12</text>
</g>
<g id="sky130_fd_sc_hd__decap_6">
<polygon id="0x5a0671048050" class="l236d0" points="0,0 27.6,0 27.6,27.2 0,27.2"/>
<polygon id="0x5a0671048120" class="l68d16" points="1.45,26.35 3.15,26.35 3.15,28.05 1.45,28.05"/>
<polygon id="0x5a06710481f0" class="l68d16" points="1.45,-0.85 3.15,-0.85 3.15,0.85 1.45,0.85"/>
<polygon id="0x5a06710482c0" class="l64d16" points="1.45,26.35 3.15,26.35 3.15,28.05 1.45,28.05"/>
<polygon id="0x5a0671048390" class="l122d16" points="1.45,-0.85 3.15,-0.85 3.15,0.85 1.45,0.85"/>
<polygon id="0x5a0671048460" class="l65d20" points="1.35,16.15 26.25,16.15 26.25,24.85 1.35,24.85"/>
<polygon id="0x5a0671048530" class="l65d20" points="1.35,2.35 26.25,2.35 26.25,7.85 1.35,7.85"/>
<polygon id="0x5a0671048c30" class="l81d4" points="0,0 27.6,0 27.6,27.2 0,27.2"/>
<polygon id="0x5a0671048d00" class="l78d44" points="0,12.5 27.6,12.5 27.6,27.2 0,27.2"/>
<polygon id="0x5a0671048e60" class="l93d44" points="0,-1.9 27.6,-1.9 27.6,10.15 0,10.15"/>
<polygon id="0x5a0671048f30" class="l64d20" points="-1.9,13.05 29.5,13.05 29.5,29.1 -1.9,29.1"/>
<polygon id="0x5a0671049000" class="l94d20" points="0,14.85 27.6,14.85 27.6,29.1 0,29.1"/>
<polygon id="0x5a06710490d0" class="l67d44" points="1.45,26.35 3.15,26.35 3.15,28.05 1.45,28.05"/>
<polygon id="0x5a06710491a0" class="l67d44" points="1.45,-0.85 3.15,-0.85 3.15,0.85 1.45,0.85"/>
<polygon id="0x5a0671049270" class="l67d44" points="6.05,26.35 7.75,26.35 7.75,28.05 6.05,28.05"/>
<polygon id="0x5a0671049340" class="l67d44" points="6.05,-0.85 7.75,-0.85 7.75,0.85 6.05,0.85"/>
<polygon id="0x5a0671049410" class="l67d44" points="10.65,26.35 12.35,26.35 12.35,28.05 10.65,28.05"/>
<polygon id="0x5a0671048d70" class="l67d44" points="10.65,-0.85 12.35,-0.85 12.35,0.85 10.65,0.85"/>
<polygon id="0x5a06710495f0" class="l67d44" points="15.25,26.35 16.95,26.35 16.95,28.05 15.25,28.05"/>
<polygon id="0x5a06710496c0" class="l67d44" points="15.25,-0.85 16.95,-0.85 16.95,0.85 15.25,0.85"/>
<polygon id="0x5a0671049790" class="l67d44" points="19.85,26.35 21.55,26.35 21.55,28.05 19.85,28.05"/>
<polygon id="0x5a0671049860" class="l67d44" points="19.85,-0.85 21.55,-0.85 21.55,0.85 19.85,0.85"/>
<polygon id="0x5a0671049930" class="l67d44" points="24.45,26.35 26.15,26.35 26.15,28.05 24.45,28.05"/>
<polygon id="0x5a0671049a00" class="l67d44" points="24.45,-0.85 26.15,-0.85 26.15,0.85 24.45,0.85"/>
<polygon id="0x5a0671049ad0" class="l66d20" points="23.65,26.15 3.95,26.15 3.95,11.25 12.75,11.25 12.75,14.85 23.65,14.85"/>
<polygon id="0x5a0671049bc0" class="l66d20" points="23.65,12.75 14.85,12.75 14.85,9.15 3.95,9.15 3.95,1.05 23.65,1.05"/>
<polygon id="0x5a0671049cb0" class="l67d20" points="27.6,0.85 26.75,0.85 26.75,8.55 12.95,8.55 12.95,13.75 0.85,13.75 0.85,0.85 0,0.85 0,-0.85 27.6,-0.85"/>
<polygon id="0x5a0671049de0" class="l67d20" points="27.6,28.05 0,28.05 0,26.35 0.85,26.35 0.85,15.45 14.65,15.45 14.65,10.25 26.75,10.25 26.75,26.35 27.6,26.35"/>
<polygon id="0x5a0671049f10" class="l95d20" points="27.6,13.45 12.95,13.45 12.95,14.75 0,14.75 0,9.75 14.65,9.75 14.65,9.25 27.6,9.25"/>
<polygon id="0x5a067104a020" class="l66d44" points="1.75,22.55 3.45,22.55 3.45,24.25 1.75,24.25"/>
<polygon id="0x5a067104a0f0" class="l66d44" points="24.15,3.9 25.85,3.9 25.85,5.6 24.15,5.6"/>
<polygon id="0x5a067104a1c0" class="l66d44" points="24.15,22.55 25.85,22.55 25.85,24.25 24.15,24.25"/>
<polygon id="0x5a067104a290" class="l66d44" points="24.15,17.45 25.85,17.45 25.85,19.15 24.15,19.15"/>
<polygon id="0x5a06710494e0" class="l66d44" points="1.75,17.45 3.45,17.45 3.45,19.15 1.75,19.15"/>
<polygon id="0x5a067104a570" class="l66d44" points="1.75,3.9 3.45,3.9 3.45,5.6 1.75,5.6"/>
<polygon id="0x5a067104a640" class="l66d44" points="4.75,12.05 6.45,12.05 6.45,13.75 4.75,13.75"/>
<polygon id="0x5a067104a710" class="l66d44" points="10.25,12.05 11.95,12.05 11.95,13.75 10.25,13.75"/>
<polygon id="0x5a067104a7e0" class="l66d44" points="15.65,10.25 17.35,10.25 17.35,11.95 15.65,11.95"/>
<polygon id="0x5a067104a8b0" class="l66d44" points="21.15,10.25 22.85,10.25 22.85,11.95 21.15,11.95"/>
<polygon id="0x5a06712128b0" class="l68d20" points="0,29.6 0,24.8 27.6,24.8 27.6,29.6"/>
<polygon id="0x5a06712128b0" class="l68d20" points="0,2.4 0,-2.4 27.6,-2.4 27.6,2.4"/>
<text id="0x5a0671048600" class="l68t5" text-anchor="middle" dominant-baseline="central" transform="translate(2.3 27.2) scale(0.1) scale(1 -1)">VPWR</text>
<text id="0x5a0671048690" class="l68t5" text-anchor="middle" dominant-baseline="central" transform="translate(2.3 0) scale(0.1) scale(1 -1)">VGND</text>
<text id="0x5a0671048b10" class="l64t5" text-anchor="middle" dominant-baseline="central" transform="translate(2.3 27.2) scale(0.1) scale(1 -1)">VPB</text>
<text id="0x5a0671048ba0" class="l64t59" text-anchor="middle" dominant-baseline="central" transform="translate(2.3 0) scale(0.1) scale(1 -1)">VNB</text>
<text id="0x5a067104a980" class="l83t44" text-anchor="start" dominant-baseline="text-before-edge" transform="translate(0 0) rotate(90) scale(0.1) scale(1 -1)">decap_6</text>
</g>
<g id="sky130_fd_sc_hd__decap_3">
<polygon id="0x5a067121fc70" class="l236d0" points="0,0 13.8,0 13.8,27.2 0,27.2"/>
<polygon id="0x5a067121fd40" class="l68d16" points="1.45,26.35 3.15,26.35 3.15,28.05 1.45,28.05"/>
<polygon id="0x5a067121fb50" class="l68d16" points="1.45,-0.85 3.15,-0.85 3.15,0.85 1.45,0.85"/>
<polygon id="0x5a067121f970" class="l64d16" points="1.45,26.35 3.15,26.35 3.15,28.05 1.45,28.05"/>
<polygon id="0x5a067121fa40" class="l122d16" points="1.45,-0.85 3.15,-0.85 3.15,0.85 1.45,0.85"/>
<polygon id="0x5a067121f850" class="l65d20" points="1.35,2.35 12.45,2.35 12.45,7.85 1.35,7.85"/>
<polygon id="0x5a067121f670" class="l65d20" points="1.35,16.15 12.45,16.15 12.45,24.85 1.35,24.85"/>
<polygon id="0x5a067121f740" class="l78d44" points="0,12.5 13.8,12.5 13.8,27.2 0,27.2"/>
<polygon id="0x5a067121ef70" class="l64d20" points="-1.9,13.05 15.7,13.05 15.7,29.1 -1.9,29.1"/>
<polygon id="0x5a067121efe0" class="l94d20" points="0,14.85 13.8,14.85 13.8,29.1 0,29.1"/>
<polygon id="0x5a0671269b20" class="l67d44" points="10.65,-0.85 12.35,-0.85 12.35,0.85 10.65,0.85"/>
<polygon id="0x5a0671269bf0" class="l67d44" points="10.65,26.35 12.35,26.35 12.35,28.05 10.65,28.05"/>
<polygon id="0x5a0671213a90" class="l67d44" points="6.05,-0.85 7.75,-0.85 7.75,0.85 6.05,0.85"/>
<polygon id="0x5a0670ffddf0" class="l67d44" points="6.05,26.35 7.75,26.35 7.75,28.05 6.05,28.05"/>
<polygon id="0x5a0670ffdec0" class="l67d44" points="1.45,-0.85 3.15,-0.85 3.15,0.85 1.45,0.85"/>
<polygon id="0x5a067104fff0" class="l67d44" points="1.45,26.35 3.15,26.35 3.15,28.05 1.45,28.05"/>
<polygon id="0x5a06710500c0" class="l81d4" points="0,0 13.8,0 13.8,27.2 0,27.2"/>
<polygon id="0x5a0671028fa0" class="l93d44" points="0,-1.9 13.8,-1.9 13.8,10.15 0,10.15"/>
<polygon id="0x5a0670ffe9f0" class="l95d20" points="13.8,13.45 6.05,13.45 6.05,14.75 0,14.75 0,9.75 7.75,9.75 7.75,9.05 13.8,9.05"/>
<polygon id="0x5a0670ffea60" class="l67d20" points="13.8,28.05 0,28.05 0,26.35 0.85,26.35 0.85,15.45 7.75,15.45 7.75,10.05 12.95,10.05 12.95,26.35 13.8,26.35"/>
<polygon id="0x5a0670ffead0" class="l67d20" points="13.8,0.85 12.95,0.85 12.95,8.35 6.05,8.35 6.05,13.75 0.85,13.75 0.85,0.85 0,0.85 0,-0.85 13.8,-0.85"/>
<polygon id="0x5a0670ffeb40" class="l66d20" points="11.25,12.55 7.95,12.55 7.95,9.15 3.95,9.15 3.95,1.05 9.85,1.05 9.85,9.25 11.25,9.25"/>
<polygon id="0x5a0671213ed0" class="l66d20" points="9.85,26.15 3.95,26.15 3.95,14.55 2.55,14.55 2.55,11.25 5.85,11.25 5.85,14.65 9.85,14.65"/>
<polygon id="0x5a0671213f40" class="l66d44" points="10.35,4 12.05,4 12.05,5.7 10.35,5.7"/>
<polygon id="0x5a0671214010" class="l66d44" points="10.35,17.8 12.05,17.8 12.05,19.5 10.35,19.5"/>
<polygon id="0x5a067104f4a0" class="l66d44" points="10.35,22.55 12.05,22.55 12.05,24.25 10.35,24.25"/>
<polygon id="0x5a067104f570" class="l66d44" points="8.75,10.05 10.45,10.05 10.45,11.75 8.75,11.75"/>
<polygon id="0x5a067104f640" class="l66d44" points="3.35,12.05 5.05,12.05 5.05,13.75 3.35,13.75"/>
<polygon id="0x5a067121e520" class="l66d44" points="1.75,4 3.45,4 3.45,5.7 1.75,5.7"/>
<polygon id="0x5a067121e5f0" class="l66d44" points="1.75,17.8 3.45,17.8 3.45,19.5 1.75,19.5"/>
<polygon id="0x5a0671216850" class="l66d44" points="1.75,22.55 3.45,22.55 3.45,24.25 1.75,24.25"/>
<polygon id="0x5a06712128b0" class="l68d20" points="0,29.6 0,24.8 13.8,24.8 13.8,29.6"/>
<polygon id="0x5a06712128b0" class="l68d20" points="0,2.4 0,-2.4 13.8,-2.4 13.8,2.4"/>
<text id="0x5a067121f500" class="l68t5" text-anchor="middle" dominant-baseline="central" transform="translate(2.3 27.2) scale(0.1) scale(1 -1)">VPWR</text>
<text id="0x5a067121f590" class="l68t5" text-anchor="middle" dominant-baseline="central" transform="translate(2.3 0) scale(0.1) scale(1 -1)">VGND</text>
<text id="0x5a067121f080" class="l64t5" text-anchor="middle" dominant-baseline="central" transform="translate(2.3 27.2) scale(0.1) scale(1 -1)">VPB</text>
<text id="0x5a067121f110" class="l64t59" text-anchor="middle" dominant-baseline="central" transform="translate(2.3 0) scale(0.1) scale(1 -1)">VNB</text>
<text id="0x5a06712168c0" class="l83t44" text-anchor="start" dominant-baseline="text-before-edge" transform="translate(0 0) rotate(90) scale(0.1) scale(1 -1)">decap_3</text>
</g>
<g id="sky130_fd_sc_hd__clkbuf_4">
<polygon id="0x5a067121ce50" class="l236d0" points="0,0 27.6,0 27.6,27.2 0,27.2"/>
<polygon id="0x5a067121cf20" class="l68d16" points="1.45,-0.85 3.15,-0.85 3.15,0.85 1.45,0.85"/>
<polygon id="0x5a067121cff0" class="l68d16" points="1.45,26.35 3.15,26.35 3.15,28.05 1.45,28.05"/>
<polygon id="0x5a067121d0c0" class="l64d16" points="1.45,26.35 3.15,26.35 3.15,28.05 1.45,28.05"/>
<polygon id="0x5a067121d190" class="l122d16" points="1.45,-0.85 3.15,-0.85 3.15,0.85 1.45,0.85"/>
<polygon id="0x5a067121d410" class="l67d44" points="24.45,-0.85 26.15,-0.85 26.15,0.85 24.45,0.85"/>
<polygon id="0x5a067102f210" class="l67d44" points="24.45,26.35 26.15,26.35 26.15,28.05 24.45,28.05"/>
<polygon id="0x5a067102f2e0" class="l67d44" points="19.85,-0.85 21.55,-0.85 21.55,0.85 19.85,0.85"/>
<polygon id="0x5a067102f3b0" class="l67d44" points="19.85,26.35 21.55,26.35 21.55,28.05 19.85,28.05"/>
<polygon id="0x5a067102f510" class="l67d44" points="15.25,-0.85 16.95,-0.85 16.95,0.85 15.25,0.85"/>
<polygon id="0x5a067102f5e0" class="l67d44" points="15.25,26.35 16.95,26.35 16.95,28.05 15.25,28.05"/>
<polygon id="0x5a067102f6b0" class="l67d44" points="10.65,-0.85 12.35,-0.85 12.35,0.85 10.65,0.85"/>
<polygon id="0x5a067102f780" class="l67d44" points="10.65,26.35 12.35,26.35 12.35,28.05 10.65,28.05"/>
<polygon id="0x5a067102f850" class="l67d44" points="6.05,-0.85 7.75,-0.85 7.75,0.85 6.05,0.85"/>
<polygon id="0x5a067102f920" class="l67d44" points="6.05,26.35 7.75,26.35 7.75,28.05 6.05,28.05"/>
<polygon id="0x5a067102f9f0" class="l67d44" points="1.45,-0.85 3.15,-0.85 3.15,0.85 1.45,0.85"/>
<polygon id="0x5a067102fac0" class="l67d44" points="1.45,26.35 3.15,26.35 3.15,28.05 1.45,28.05"/>
<polygon id="0x5a067102fc40" class="l94d20" points="0,13.55 27.6,13.55 27.6,29.1 0,29.1"/>
<polygon id="0x5a067102fd10" class="l64d20" points="-1.9,13.05 29.5,13.05 29.5,29.1 -1.9,29.1"/>
<polygon id="0x5a067102fde0" class="l93d44" points="0,-1.9 27.6,-1.9 27.6,10.15 0,10.15"/>
<polygon id="0x5a067102feb0" class="l78d44" points="0,12.5 27.6,12.5 27.6,27.2 0,27.2"/>
<polygon id="0x5a067102ff80" class="l95d20" points="0,9.75 27.6,9.75 27.6,13.45 0,13.45"/>
<polygon id="0x5a0671030050" class="l81d4" points="0,0 27.6,0 27.6,27.2 0,27.2"/>
<polygon id="0x5a0671030120" class="l67d20" points="4.25,7.55 7.75,7.55 7.75,13.25 4.25,13.25"/>
<polygon id="0x5a06710301f0" class="l67d20" points="27.6,0.85 26.15,0.85 26.15,5.65 23.35,5.65 23.35,0.85 17.3,0.85 17.3,5.65 14.75,5.65 14.75,0.85 8.3,0.85 8.3,5.65 5.55,5.65 5.55,0.85 0,0.85 0,-0.85 27.6,-0.85"/>
<polygon id="0x5a0671030260" class="l67d20" points="26.6,15.85 21.65,15.85 21.65,24.65 19.05,24.65 19.05,20.05 13.05,20.05 13.05,24.65 10.45,24.65 10.45,18.35 19.05,18.35 19.05,14.15 22.55,14.15 22.55,9.05 10.1,9.05 10.1,3.45 13.05,3.45 13.05,7.35 19.05,7.35 19.05,3.45 21.65,3.45 21.65,7.35 26.6,7.35"/>
<polygon id="0x5a06710302d0" class="l67d20" points="20.85,12.45 11.15,12.45 11.15,16.65 3.95,16.65 3.95,24.65 0.85,24.65 0.85,2.55 3.85,2.55 3.85,5.85 2.55,5.85 2.55,14.95 9.45,14.95 9.45,10.75 20.85,10.75"/>
<polygon id="0x5a0671030340" class="l67d20" points="27.6,28.05 0,28.05 0,26.35 5.65,26.35 5.65,18.35 8.75,18.35 8.75,26.35 14.75,26.35 14.75,21.75 17.3,21.75 17.3,26.35 23.35,26.35 23.35,17.65 26.2,17.65 26.2,26.35 27.6,26.35"/>
<polygon id="0x5a06710303b0" class="l66d44" points="15.2,3.15 16.9,3.15 16.9,4.85 15.2,4.85"/>
<polygon id="0x5a0671030480" class="l66d44" points="18.35,10.75 20.05,10.75 20.05,12.45 18.35,12.45"/>
<polygon id="0x5a0671030550" class="l66d44" points="19.45,18.75 21.15,18.75 21.15,20.45 19.45,20.45"/>
<polygon id="0x5a0671030620" class="l66d44" points="6.05,19.15 7.75,19.15 7.75,20.85 6.05,20.85"/>
<polygon id="0x5a06710306f0" class="l66d44" points="19.45,15.35 21.15,15.35 21.15,17.05 19.45,17.05"/>
<polygon id="0x5a067102fb90" class="l66d44" points="1.75,22.15 3.45,22.15 3.45,23.85 1.75,23.85"/>
<polygon id="0x5a06710309d0" class="l66d44" points="4.25,10.75 5.95,10.75 5.95,12.45 4.25,12.45"/>
<polygon id="0x5a0671030aa0" class="l66d44" points="1.75,16.05 3.45,16.05 3.45,17.75 1.75,17.75"/>
<polygon id="0x5a0671030b70" class="l66d44" points="1.75,3.35 3.45,3.35 3.45,5.05 1.75,5.05"/>
<polygon id="0x5a0671030c40" class="l66d44" points="6.05,22.55 7.75,22.55 7.75,24.25 6.05,24.25"/>
<polygon id="0x5a0671030d10" class="l66d44" points="23.75,18.45 25.45,18.45 25.45,20.15 23.75,20.15"/>
<polygon id="0x5a0671030de0" class="l66d44" points="6.05,3.15 7.75,3.15 7.75,4.85 6.05,4.85"/>
<polygon id="0x5a0671030eb0" class="l66d44" points="10.85,20.8 12.55,20.8 12.55,22.5 10.85,22.5"/>
<polygon id="0x5a0671030f80" class="l66d44" points="10.9,4.25 12.6,4.25 12.6,5.95 10.9,5.95"/>
<polygon id="0x5a0671031050" class="l66d44" points="11.55,10.75 13.25,10.75 13.25,12.45 11.55,12.45"/>
<polygon id="0x5a0671031120" class="l66d44" points="14.95,10.75 16.65,10.75 16.65,12.45 14.95,12.45"/>
<polygon id="0x5a06710311f0" class="l66d44" points="15.15,22.55 16.85,22.55 16.85,24.25 15.15,24.25"/>
<polygon id="0x5a06710312c0" class="l66d44" points="19.45,22.15 21.15,22.15 21.15,23.85 19.45,23.85"/>
<polygon id="0x5a0671031390" class="l66d44" points="19.5,4.25 21.2,4.25 21.2,5.95 19.5,5.95"/>
<polygon id="0x5a0671031460" class="l66d44" points="23.75,21.85 25.45,21.85 25.45,23.55 23.75,23.55"/>
<polygon id="0x5a0671031530" class="l66d44" points="23.8,3.15 25.5,3.15 25.5,4.85 23.8,4.85"/>
<polygon id="0x5a0671031600" class="l66d20" points="23.25,11.85 23.2,11.85 23.2,26.15 21.7,26.15 21.7,12.95 18.9,12.95 18.9,26.15 17.4,26.15 17.4,12.95 14.6,12.95 14.6,26.15 13.1,26.15 13.1,12.95 10.3,12.95 10.3,26.15 8.8,26.15 8.8,10.5 8.85,10.5 8.85,1.05 10.35,1.05 10.35,10.2 13.15,10.2 13.15,1.05 14.65,1.05 14.65,10.2 17.45,10.2 17.45,1.05 18.95,1.05 18.95,10.2 21.75,10.2 21.75,1.05 23.25,1.05"/>
<polygon id="0x5a0671031670" class="l66d20" points="6.45,13.25 5.5,13.25 5.5,26.15 4,26.15 4,13.25 3.45,13.25 3.45,9.95 4,9.95 4,1.05 5.5,1.05 5.5,9.95 6.45,9.95"/>
<polygon id="0x5a06710316e0" class="l65d20" points="1.35,2.35 26.15,2.35 26.15,6.55 1.35,6.55"/>
<polygon id="0x5a06710317b0" class="l65d20" points="1.35,14.85 26.2,14.85 26.2,24.85 1.35,24.85"/>
<polygon id="0x5a0671031880" class="l67d16" points="6.05,11.05 7.75,11.05 7.75,12.75 6.05,12.75"/>
<polygon id="0x5a0671031950" class="l67d16" points="6.05,7.65 7.75,7.65 7.75,9.35 6.05,9.35"/>
<polygon id="0x5a0671031a20" class="l67d16" points="19.85,14.45 21.55,14.45 21.55,16.15 19.85,16.15"/>
<polygon id="0x5a0671031af0" class="l67d16" points="24.45,11.05 26.15,11.05 26.15,12.75 24.45,12.75"/>
<polygon id="0x5a0671031bc0" class="l67d16" points="24.45,7.65 26.15,7.65 26.15,9.35 24.45,9.35"/>
<polygon id="0x5a06712128b0" class="l68d20" points="0,2.4 0,-2.4 27.6,-2.4 27.6,2.4"/>
<polygon id="0x5a06712128b0" class="l68d20" points="0,29.6 0,24.8 27.6,24.8 27.6,29.6"/>
<text id="0x5a067121d260" class="l67t5" text-anchor="middle" dominant-baseline="central" transform="translate(20.7 15.3) scale(0.1) scale(1 -1)">X</text>
<text id="0x5a067121d2f0" class="l67t5" text-anchor="middle" dominant-baseline="central" transform="translate(6.9 8.5) scale(0.1) scale(1 -1)">A</text>
<text id="0x5a067121d380" class="l67t5" text-anchor="middle" dominant-baseline="central" transform="translate(25.3 8.5) scale(0.1) scale(1 -1)">X</text>
<text id="0x5a067102ed10" class="l67t5" text-anchor="middle" dominant-baseline="central" transform="translate(6.9 11.9) scale(0.1) scale(1 -1)">A</text>
<text id="0x5a067102eda0" class="l67t5" text-anchor="middle" dominant-baseline="central" transform="translate(25.3 11.9) scale(0.1) scale(1 -1)">X</text>
<text id="0x5a067102ee30" class="l68t5" text-anchor="middle" dominant-baseline="central" transform="translate(2.3 0) scale(0.1) scale(1 -1)">VGND</text>
<text id="0x5a067102eec0" class="l68t5" text-anchor="middle" dominant-baseline="central" transform="translate(2.3 27.2) scale(0.1) scale(1 -1)">VPWR</text>
<text id="0x5a0671031c90" class="l64t5" text-anchor="middle" dominant-baseline="central" transform="translate(2.3 27.2) scale(0.1) scale(1 -1)">VPB</text>
<text id="0x5a0671033820" class="l64t59" text-anchor="middle" dominant-baseline="central" transform="translate(2.3 0) scale(0.1) scale(1 -1)">VNB</text>
<text id="0x5a0671033940" class="l83t44" text-anchor="start" dominant-baseline="text-before-edge" transform="translate(0 0) rotate(90) scale(0.1) scale(1 -1)">clkbuf_4</text>
</g>
<g id="sky130_fd_sc_hd__inv_2">
<polygon id="0x5a0671218b30" class="l236d0" points="0,0 13.8,0 13.8,27.2 0,27.2"/>
<polygon id="0x5a0671218c00" class="l64d16" points="1.45,26.35 3.15,26.35 3.15,28.05 1.45,28.05"/>
<polygon id="0x5a0671218cd0" class="l122d16" points="1.45,-0.85 3.15,-0.85 3.15,0.85 1.45,0.85"/>
<polygon id="0x5a0671218da0" class="l68d16" points="1.45,26.35 3.15,26.35 3.15,28.05 1.45,28.05"/>
<polygon id="0x5a0671218e70" class="l68d16" points="1.45,-0.85 3.15,-0.85 3.15,0.85 1.45,0.85"/>
<polygon id="0x5a0671218f40" class="l67d20" points="13.8,28.05 0,28.05 0,26.35 1.25,26.35 1.25,14.95 3.55,14.95 3.55,26.35 10.25,26.35 10.25,14.95 12.35,14.95 12.35,26.35 13.8,26.35"/>
<polygon id="0x5a0671218fb0" class="l67d20" points="8.55,24.65 5.25,24.65 5.25,14.85 6.05,14.85 6.05,8.85 5.25,8.85 5.25,2.55 8.55,2.55"/>
<polygon id="0x5a06712190c0" class="l67d20" points="1.05,10.75 4.35,10.75 4.35,13.25 1.05,13.25"/>
<polygon id="0x5a0671219190" class="l67d20" points="13.8,0.85 12.35,0.85 12.35,9.05 10.25,9.05 10.25,0.85 3.55,0.85 3.55,9.05 1.25,9.05 1.25,0.85 0,0.85 0,-0.85 13.8,-0.85"/>
<polygon id="0x5a0671219970" class="l66d44" points="10.25,2.95 11.95,2.95 11.95,4.65 10.25,4.65"/>
<polygon id="0x5a0671046160" class="l66d44" points="10.25,6.55 11.95,6.55 11.95,8.25 10.25,8.25"/>
<polygon id="0x5a0671046230" class="l66d44" points="10.25,15.75 11.95,15.75 11.95,17.45 10.25,17.45"/>
<polygon id="0x5a0671046300" class="l66d44" points="10.25,19.15 11.95,19.15 11.95,20.85 10.25,20.85"/>
<polygon id="0x5a06710463d0" class="l66d44" points="10.25,22.55 11.95,22.55 11.95,24.25 10.25,24.25"/>
<polygon id="0x5a06710464a0" class="l66d44" points="6.05,2.95 7.75,2.95 7.75,4.65 6.05,4.65"/>
<polygon id="0x5a0671046570" class="l66d44" points="6.05,6.55 7.75,6.55 7.75,8.25 6.05,8.25"/>
<polygon id="0x5a0671046640" class="l66d44" points="6.05,15.75 7.75,15.75 7.75,17.45 6.05,17.45"/>
<polygon id="0x5a06710467c0" class="l66d44" points="6.05,19.15 7.75,19.15 7.75,20.85 6.05,20.85"/>
<polygon id="0x5a0671046890" class="l66d44" points="6.05,22.55 7.75,22.55 7.75,24.25 6.05,24.25"/>
<polygon id="0x5a0671046960" class="l66d44" points="1.85,22.55 3.55,22.55 3.55,24.25 1.85,24.25"/>
<polygon id="0x5a0671046a30" class="l66d44" points="1.85,2.95 3.55,2.95 3.55,4.65 1.85,4.65"/>
<polygon id="0x5a0671046b00" class="l66d44" points="1.85,6.55 3.55,6.55 3.55,8.25 1.85,8.25"/>
<polygon id="0x5a0671046bd0" class="l66d44" points="1.85,10.75 3.55,10.75 3.55,12.45 1.85,12.45"/>
<polygon id="0x5a0671046ca0" class="l66d44" points="1.85,15.75 3.55,15.75 3.55,17.45 1.85,17.45"/>
<polygon id="0x5a0671046d70" class="l66d44" points="1.85,19.15 3.55,19.15 3.55,20.85 1.85,20.85"/>
<polygon id="0x5a0671046e40" class="l66d20" points="9.75,26.15 8.25,26.15 8.25,13.25 5.55,13.25 5.55,26.15 4.05,26.15 4.05,13.25 1.05,13.25 1.05,9.95 4.05,9.95 4.05,1.05 5.55,1.05 5.55,9.95 8.25,9.95 8.25,1.05 9.75,1.05"/>
<polygon id="0x5a0671046eb0" class="l65d20" points="1.45,2.35 12.35,2.35 12.35,8.85 1.45,8.85"/>
<polygon id="0x5a0671046f80" class="l65d20" points="1.45,14.85 12.35,14.85 12.35,24.85 1.45,24.85"/>
<polygon id="0x5a0671047050" class="l67d16" points="6.05,7.65 7.75,7.65 7.75,9.35 6.05,9.35"/>
<polygon id="0x5a0671047120" class="l67d16" points="1.45,11.05 3.15,11.05 3.15,12.75 1.45,12.75"/>
<polygon id="0x5a06710471f0" class="l67d16" points="6.05,14.45 7.75,14.45 7.75,16.15 6.05,16.15"/>
<polygon id="0x5a06710472c0" class="l67d16" points="6.05,11.05 7.75,11.05 7.75,12.75 6.05,12.75"/>
<polygon id="0x5a0671047390" class="l67d44" points="10.65,-0.85 12.35,-0.85 12.35,0.85 10.65,0.85"/>
<polygon id="0x5a0671046710" class="l67d44" points="1.45,26.35 3.15,26.35 3.15,28.05 1.45,28.05"/>
<polygon id="0x5a0671047670" class="l67d44" points="1.45,-0.85 3.15,-0.85 3.15,0.85 1.45,0.85"/>
<polygon id="0x5a0671047740" class="l67d44" points="6.05,26.35 7.75,26.35 7.75,28.05 6.05,28.05"/>
<polygon id="0x5a0671047810" class="l67d44" points="6.05,-0.85 7.75,-0.85 7.75,0.85 6.05,0.85"/>
<polygon id="0x5a06710478e0" class="l67d44" points="10.65,26.35 12.35,26.35 12.35,28.05 10.65,28.05"/>
<polygon id="0x5a06710479b0" class="l81d4" points="0,0 13.8,0 13.8,27.2 0,27.2"/>
<polygon id="0x5a0671047a80" class="l94d20" points="0,13.55 13.8,13.55 13.8,29.1 0,29.1"/>
<polygon id="0x5a0671047b50" class="l64d20" points="-1.9,13.05 15.7,13.05 15.7,29.1 -1.9,29.1"/>
<polygon id="0x5a0671047c20" class="l93d44" points="0,-1.9 13.8,-1.9 13.8,10.15 0,10.15"/>
<polygon id="0x5a0671047cf0" class="l78d44" points="0,12.5 13.8,12.5 13.8,27.2 0,27.2"/>
<polygon id="0x5a0671047dc0" class="l95d20" points="0,9.75 13.8,9.75 13.8,13.45 0,13.45"/>
<polygon id="0x5a06712128b0" class="l68d20" points="0,29.6 0,24.8 13.8,24.8 13.8,29.6"/>
<polygon id="0x5a06712128b0" class="l68d20" points="0,2.4 0,-2.4 13.8,-2.4 13.8,2.4"/>
<text id="0x5a0671219290" class="l67t5" text-anchor="middle" dominant-baseline="central" transform="translate(2.3 11.9) scale(0.17) scale(1 -1)">A</text>
<text id="0x5a0671219320" class="l67t5" text-anchor="middle" dominant-baseline="central" transform="translate(6.9 8.5) scale(0.17) scale(1 -1)">Y</text>
<text id="0x5a06712193b0" class="l67t5" text-anchor="middle" dominant-baseline="central" transform="translate(6.9 15.3) scale(0.17) scale(1 -1)">Y</text>
<text id="0x5a0671219440" class="l67t5" text-anchor="middle" dominant-baseline="central" transform="translate(6.9 11.9) scale(0.17) scale(1 -1)">Y</text>
<text id="0x5a06712194d0" class="l64t5" text-anchor="middle" dominant-baseline="central" transform="translate(2.3 27.2) scale(0.1) scale(1 -1)">VPB</text>
<text id="0x5a0671219560" class="l64t59" text-anchor="middle" dominant-baseline="central" transform="translate(2.3 0) scale(0.1) scale(1 -1)">VNB</text>
<text id="0x5a06712195f0" class="l68t5" text-anchor="middle" dominant-baseline="central" transform="translate(2.3 27.2) scale(0.1) scale(1 -1)">VPWR</text>
<text id="0x5a0671219680" class="l68t5" text-anchor="middle" dominant-baseline="central" transform="translate(2.3 0) scale(0.1) scale(1 -1)">VGND</text>
<text id="0x5a0671047e90" class="l83t44" text-anchor="start" dominant-baseline="text-before-edge" transform="translate(0 0) rotate(90) scale(0.1) scale(1 -1)">inv_2</text>
</g>
<g id="sky130_fd_sc_hd__fill_1">
<polygon id="0x5a06712169f0" class="l64d16" points="1.55,26.7 2.55,26.7 2.55,27.55 1.55,27.55"/>
<polygon id="0x5a0671216ac0" class="l122d16" points="1.4,-0.55 2.6,-0.55 2.6,0.55 1.4,0.55"/>
<polygon id="0x5a0671216b90" class="l68d16" points="1.1,26.35 2.9,26.35 2.9,27.85 1.1,27.85"/>
<polygon id="0x5a0671216c60" class="l68d16" points="1.1,-0.65 2.9,-0.65 2.9,0.8 1.1,0.8"/>
<polygon id="0x5a0671216d30" class="l81d4" points="0,0 4.6,0 4.6,27.2 0,27.2"/>
<polygon id="0x5a0671216e00" class="l78d44" points="0,12.5 4.6,12.5 4.6,27.2 0,27.2"/>
<polygon id="0x5a0671216ed0" class="l93d44" points="0,-1.9 4.6,-1.9 4.6,10.15 0,10.15"/>
<polygon id="0x5a0671216fa0" class="l64d20" points="-1.9,13.05 6.5,13.05 6.5,29.1 -1.9,29.1"/>
<polygon id="0x5a0671217070" class="l94d20" points="0,13.55 4.6,13.55 4.6,29.1 0,29.1"/>
<polygon id="0x5a067104b710" class="l67d44" points="1.45,26.35 3.15,26.35 3.15,28.05 1.45,28.05"/>
<polygon id="0x5a067104b7e0" class="l67d44" points="1.45,-0.85 3.15,-0.85 3.15,0.85 1.45,0.85"/>
<polygon id="0x5a06712128b0" class="l67d20" points="0,0.85 0,-0.85 4.6,-0.85 4.6,0.85"/>
<polygon id="0x5a06712128b0" class="l67d20" points="0,28.05 0,26.35 4.6,26.35 4.6,28.05"/>
<polygon id="0x5a06712128b0" class="l68d20" points="0,29.6 0,24.8 4.6,24.8 4.6,29.6"/>
<polygon id="0x5a06712128b0" class="l68d20" points="0,2.4 0,-2.4 4.6,-2.4 4.6,2.4"/>
<text id="0x5a067104b8b0" class="l68t5" text-anchor="middle" dominant-baseline="central" transform="translate(2.05 27.2) scale(0.125) scale(1 -1)">VPWR</text>
<text id="0x5a067104b940" class="l68t5" text-anchor="middle" dominant-baseline="central" transform="translate(2.05 0) scale(0.125) scale(1 -1)">VGND</text>
<text id="0x5a067104b9d0" class="l64t5" text-anchor="middle" dominant-baseline="central" transform="translate(2.3 27.2) scale(0.1) scale(1 -1)">VPB</text>
<text id="0x5a067104ba60" class="l64t59" text-anchor="middle" dominant-baseline="central" transform="translate(2.3 0) scale(0.1) scale(1 -1)">VNB</text>
<text id="0x5a067104baf0" class="l83t44" text-anchor="start" dominant-baseline="text-before-edge" transform="translate(0 0) rotate(90) scale(0.1) scale(1 -1)">fill_1</text>
</g>
</defs>
<rect x="-28.56" y="-599.76" width="402.12" height="628.32" fill="#222222" stroke="none"/>
<g id="INERTER" transform="scale(1 -1)">
<polygon id="0x5a067103bc50" class="l235d4" points="0,0 345,0 345,571.2 0,571.2"/>
<polygon id="0x5a067103bd50" class="l67d20" points="272.85,313.65 274.55,313.65 274.55,315.35 272.85,315.35"/>
<polygon id="0x5a067103be20" class="l67d20" points="263.65,303.45 265.35,303.45 265.35,305.15 263.65,305.15"/>
<polygon id="0x5a067103bef0" class="l67d20" points="254.45,279.65 256.15,279.65 256.15,281.35 254.45,281.35"/>
<polygon id="0x5a067103bfc0" class="l67d20" points="268.25,276.25 269.95,276.25 269.95,277.95 268.25,277.95"/>
<polygon id="0x5a067103c090" class="l67d20" points="217.65,130.05 219.35,130.05 219.35,131.75 217.65,131.75"/>
<polygon id="0x5a067103c160" class="l67d20" points="222.25,119.85 223.95,119.85 223.95,121.55 222.25,121.55"/>
<polygon id="0x5a067103c230" class="l67d44" points="272.85,313.65 274.55,313.65 274.55,315.35 272.85,315.35"/>
<polygon id="0x5a067103c300" class="l67d44" points="263.65,303.45 265.35,303.45 265.35,305.15 263.65,305.15"/>
<polygon id="0x5a067103c460" class="l67d44" points="254.45,279.65 256.15,279.65 256.15,281.35 254.45,281.35"/>
<polygon id="0x5a067103c530" class="l67d44" points="268.25,276.25 269.95,276.25 269.95,277.95 268.25,277.95"/>
<polygon id="0x5a067103c600" class="l67d44" points="217.65,130.05 219.35,130.05 219.35,131.75 217.65,131.75"/>
<polygon id="0x5a067103c6d0" class="l67d44" points="222.25,119.85 223.95,119.85 223.95,121.55 222.25,121.55"/>
<polygon id="0x5a067103c7a0" class="l68d20" points="55.2,460 289.8,460 289.8,464.8 55.2,464.8"/>
<polygon id="0x5a067103c870" class="l68d20" points="55.2,432.8 289.8,432.8 289.8,437.6 55.2,437.6"/>
<polygon id="0x5a067103c940" class="l68d20" points="55.2,405.6 289.8,405.6 289.8,410.4 55.2,410.4"/>
<polygon id="0x5a067103ca10" class="l68d20" points="55.2,378.4 289.8,378.4 289.8,383.2 55.2,383.2"/>
<polygon id="0x5a067103cb90" class="l68d20" points="55.2,351.2 289.8,351.2 289.8,356 55.2,356"/>
<polygon id="0x5a067103cc60" class="l68d20" points="55.2,324 289.8,324 289.8,328.8 55.2,328.8"/>
<polygon id="0x5a067103cd30" class="l68d20" points="272.1,313.2 275.3,313.2 275.3,315.8 272.1,315.8"/>
<polygon id="0x5a067103ce00" class="l68d20" points="262.9,303 266.1,303 266.1,305.6 262.9,305.6"/>
<polygon id="0x5a067103ced0" class="l68d20" points="55.2,296.8 289.8,296.8 289.8,301.6 55.2,301.6"/>
<polygon id="0x5a067103cfa0" class="l68d20" points="253.7,279.2 256.9,279.2 256.9,281.8 253.7,281.8"/>
<polygon id="0x5a067103d070" class="l68d20" points="267.65,277.8 270.55,277.8 270.55,278.25 267.65,278.25"/>
<polygon id="0x5a067103d140" class="l68d20" points="272.1,277.8 275.3,277.8 275.3,278.4 272.1,278.4"/>
<polygon id="0x5a067103d210" class="l68d20" points="267.65,276.4 275.3,276.4 275.3,277.8 267.65,277.8"/>
<polygon id="0x5a067103d2e0" class="l68d20" points="267.65,275.95 270.55,275.95 270.55,276.4 267.65,276.4"/>
<polygon id="0x5a067103d3b0" class="l68d20" points="272.1,275.8 275.3,275.8 275.3,276.4 272.1,276.4"/>
<polygon id="0x5a067103d480" class="l68d20" points="55.2,269.6 289.8,269.6 289.8,274.4 55.2,274.4"/>
<polygon id="0x5a067103d550" class="l68d20" points="55.2,242.4 289.8,242.4 289.8,247.2 55.2,247.2"/>
<polygon id="0x5a067103d620" class="l68d20" points="55.2,215.2 289.8,215.2 289.8,220 55.2,220"/>
<polygon id="0x5a067103d6f0" class="l68d20" points="55.2,188 289.8,188 289.8,192.8 55.2,192.8"/>
<polygon id="0x5a067103d7c0" class="l68d20" points="55.2,160.8 289.8,160.8 289.8,165.6 55.2,165.6"/>
<polygon id="0x5a067103cae0" class="l68d20" points="55.2,133.6 289.8,133.6 289.8,138.4 55.2,138.4"/>
<polygon id="0x5a067103daa0" class="l68d20" points="217.05,131.6 219.95,131.6 219.95,132.05 217.05,132.05"/>
<polygon id="0x5a067103db70" class="l68d20" points="253.7,131.6 256.9,131.6 256.9,132.2 253.7,132.2"/>
<polygon id="0x5a067103dc40" class="l68d20" points="217.05,130.2 256.9,130.2 256.9,131.6 217.05,131.6"/>
<polygon id="0x5a067103dd10" class="l68d20" points="217.05,129.75 219.95,129.75 219.95,130.2 217.05,130.2"/>
<polygon id="0x5a067103dde0" class="l68d20" points="253.7,129.6 256.9,129.6 256.9,130.2 253.7,130.2"/>
<polygon id="0x5a067103deb0" class="l68d20" points="221.65,121.4 224.55,121.4 224.55,121.85 221.65,121.85"/>
<polygon id="0x5a067103df80" class="l68d20" points="262.9,121.4 266.1,121.4 266.1,122 262.9,122"/>
<polygon id="0x5a067103e050" class="l68d20" points="221.65,120 266.1,120 266.1,121.4 221.65,121.4"/>
<polygon id="0x5a067103e120" class="l68d20" points="221.65,119.55 224.55,119.55 224.55,120 221.65,120"/>
<polygon id="0x5a067103e1f0" class="l68d20" points="262.9,119.4 266.1,119.4 266.1,120 262.9,120"/>
<polygon id="0x5a067103e2c0" class="l68d20" points="55.2,106.4 289.8,106.4 289.8,111.2 55.2,111.2"/>
<polygon id="0x5a067103e390" class="l68d44" points="98.05,461.65 99.55,461.65 99.55,463.15 98.05,463.15"/>
<polygon id="0x5a067103e460" class="l68d44" points="101.25,461.65 102.75,461.65 102.75,463.15 101.25,463.15"/>
<polygon id="0x5a067103e530" class="l68d44" points="104.45,461.65 105.95,461.65 105.95,463.15 104.45,463.15"/>
<polygon id="0x5a067103e600" class="l68d44" points="107.65,461.65 109.15,461.65 109.15,463.15 107.65,463.15"/>
<polygon id="0x5a067103e6d0" class="l68d44" points="110.85,461.65 112.35,461.65 112.35,463.15 110.85,463.15"/>
<polygon id="0x5a067103e7a0" class="l68d44" points="131.05,434.45 132.55,434.45 132.55,435.95 131.05,435.95"/>
<polygon id="0x5a067103e870" class="l68d44" points="134.25,434.45 135.75,434.45 135.75,435.95 134.25,435.95"/>
<polygon id="0x5a067103e940" class="l68d44" points="137.45,434.45 138.95,434.45 138.95,435.95 137.45,435.95"/>
<polygon id="0x5a067103ea10" class="l68d44" points="140.65,434.45 142.15,434.45 142.15,435.95 140.65,435.95"/>
<polygon id="0x5a067103eae0" class="l68d44" points="143.85,434.45 145.35,434.45 145.35,435.95 143.85,435.95"/>
<polygon id="0x5a067103ebb0" class="l68d44" points="98.05,407.25 99.55,407.25 99.55,408.75 98.05,408.75"/>
<polygon id="0x5a067103ec80" class="l68d44" points="101.25,407.25 102.75,407.25 102.75,408.75 101.25,408.75"/>
<polygon id="0x5a067103ed50" class="l68d44" points="104.45,407.25 105.95,407.25 105.95,408.75 104.45,408.75"/>
<polygon id="0x5a067103ee20" class="l68d44" points="107.65,407.25 109.15,407.25 109.15,408.75 107.65,408.75"/>
<polygon id="0x5a067103eef0" class="l68d44" points="110.85,407.25 112.35,407.25 112.35,408.75 110.85,408.75"/>
<polygon id="0x5a067103efc0" class="l68d44" points="131.05,380.05 132.55,380.05 132.55,381.55 131.05,381.55"/>
<polygon id="0x5a067103f090" class="l68d44" points="134.25,380.05 135.75,380.05 135.75,381.55 134.25,381.55"/>
<polygon id="0x5a067103f160" class="l68d44" points="137.45,380.05 138.95,380.05 138.95,381.55 137.45,381.55"/>
<polygon id="0x5a067103f230" class="l68d44" points="140.65,380.05 142.15,380.05 142.15,381.55 140.65,381.55"/>
<polygon id="0x5a067103f300" class="l68d44" points="143.85,380.05 145.35,380.05 145.35,381.55 143.85,381.55"/>
<polygon id="0x5a067103f3d0" class="l68d44" points="98.05,352.85 99.55,352.85 99.55,354.35 98.05,354.35"/>
<polygon id="0x5a067103f4a0" class="l68d44" points="101.25,352.85 102.75,352.85 102.75,354.35 101.25,354.35"/>
<polygon id="0x5a067103d830" class="l68d44" points="104.45,352.85 105.95,352.85 105.95,354.35 104.45,354.35"/>
<polygon id="0x5a067103d900" class="l68d44" points="107.65,352.85 109.15,352.85 109.15,354.35 107.65,354.35"/>
<polygon id="0x5a067103d9d0" class="l68d44" points="110.85,352.85 112.35,352.85 112.35,354.35 110.85,354.35"/>
<polygon id="0x5a0671206280" class="l68d44" points="131.05,325.65 132.55,325.65 132.55,327.15 131.05,327.15"/>
<polygon id="0x5a0671206350" class="l68d44" points="134.25,325.65 135.75,325.65 135.75,327.15 134.25,327.15"/>
<polygon id="0x5a0671206420" class="l68d44" points="137.45,325.65 138.95,325.65 138.95,327.15 137.45,327.15"/>
<polygon id="0x5a06712064f0" class="l68d44" points="140.65,325.65 142.15,325.65 142.15,327.15 140.65,327.15"/>
<polygon id="0x5a06712065c0" class="l68d44" points="143.85,325.65 145.35,325.65 145.35,327.15 143.85,327.15"/>
<polygon id="0x5a0671206690" class="l68d44" points="272.95,313.75 274.45,313.75 274.45,315.25 272.95,315.25"/>
<polygon id="0x5a0671206760" class="l68d44" points="263.75,303.55 265.25,303.55 265.25,305.05 263.75,305.05"/>
<polygon id="0x5a0671206830" class="l68d44" points="98.05,298.45 99.55,298.45 99.55,299.95 98.05,299.95"/>
<polygon id="0x5a0671206900" class="l68d44" points="101.25,298.45 102.75,298.45 102.75,299.95 101.25,299.95"/>
<polygon id="0x5a06712069d0" class="l68d44" points="104.45,298.45 105.95,298.45 105.95,299.95 104.45,299.95"/>
<polygon id="0x5a0671206aa0" class="l68d44" points="107.65,298.45 109.15,298.45 109.15,299.95 107.65,299.95"/>
<polygon id="0x5a0671206b70" class="l68d44" points="110.85,298.45 112.35,298.45 112.35,299.95 110.85,299.95"/>
<polygon id="0x5a0671206c40" class="l68d44" points="254.55,279.75 256.05,279.75 256.05,281.25 254.55,281.25"/>
<polygon id="0x5a0671206d10" class="l68d44" points="272.95,276.35 274.45,276.35 274.45,277.85 272.95,277.85"/>
<polygon id="0x5a0671206de0" class="l68d44" points="131.05,271.25 132.55,271.25 132.55,272.75 131.05,272.75"/>
<polygon id="0x5a0671206eb0" class="l68d44" points="134.25,271.25 135.75,271.25 135.75,272.75 134.25,272.75"/>
<polygon id="0x5a0671206f80" class="l68d44" points="137.45,271.25 138.95,271.25 138.95,272.75 137.45,272.75"/>
<polygon id="0x5a0671207050" class="l68d44" points="140.65,271.25 142.15,271.25 142.15,272.75 140.65,272.75"/>
<polygon id="0x5a0671207120" class="l68d44" points="143.85,271.25 145.35,271.25 145.35,272.75 143.85,272.75"/>
<polygon id="0x5a06712071f0" class="l68d44" points="98.05,244.05 99.55,244.05 99.55,245.55 98.05,245.55"/>
<polygon id="0x5a06712072c0" class="l68d44" points="101.25,244.05 102.75,244.05 102.75,245.55 101.25,245.55"/>
<polygon id="0x5a0671207390" class="l68d44" points="104.45,244.05 105.95,244.05 105.95,245.55 104.45,245.55"/>
<polygon id="0x5a0671207460" class="l68d44" points="107.65,244.05 109.15,244.05 109.15,245.55 107.65,245.55"/>
<polygon id="0x5a0671207530" class="l68d44" points="110.85,244.05 112.35,244.05 112.35,245.55 110.85,245.55"/>
<polygon id="0x5a0671207600" class="l68d44" points="131.05,216.85 132.55,216.85 132.55,218.35 131.05,218.35"/>
<polygon id="0x5a06712076d0" class="l68d44" points="134.25,216.85 135.75,216.85 135.75,218.35 134.25,218.35"/>
<polygon id="0x5a06712077a0" class="l68d44" points="137.45,216.85 138.95,216.85 138.95,218.35 137.45,218.35"/>
<polygon id="0x5a0671207870" class="l68d44" points="140.65,216.85 142.15,216.85 142.15,218.35 140.65,218.35"/>
<polygon id="0x5a0671207940" class="l68d44" points="143.85,216.85 145.35,216.85 145.35,218.35 143.85,218.35"/>
<polygon id="0x5a0671207a10" class="l68d44" points="98.05,189.65 99.55,189.65 99.55,191.15 98.05,191.15"/>
<polygon id="0x5a0671207ae0" class="l68d44" points="101.25,189.65 102.75,189.65 102.75,191.15 101.25,191.15"/>
<polygon id="0x5a0671207bb0" class="l68d44" points="104.45,189.65 105.95,189.65 105.95,191.15 104.45,191.15"/>
<polygon id="0x5a0671207c80" class="l68d44" points="107.65,189.65 109.15,189.65 109.15,191.15 107.65,191.15"/>
<polygon id="0x5a0671207d50" class="l68d44" points="110.85,189.65 112.35,189.65 112.35,191.15 110.85,191.15"/>
<polygon id="0x5a0671207e20" class="l68d44" points="131.05,162.45 132.55,162.45 132.55,163.95 131.05,163.95"/>
<polygon id="0x5a0671207ef0" class="l68d44" points="134.25,162.45 135.75,162.45 135.75,163.95 134.25,163.95"/>
<polygon id="0x5a0671207fc0" class="l68d44" points="137.45,162.45 138.95,162.45 138.95,163.95 137.45,163.95"/>
<polygon id="0x5a0671208090" class="l68d44" points="140.65,162.45 142.15,162.45 142.15,163.95 140.65,163.95"/>
<polygon id="0x5a0671208160" class="l68d44" points="143.85,162.45 145.35,162.45 145.35,163.95 143.85,163.95"/>
<polygon id="0x5a0671208230" class="l68d44" points="98.05,135.25 99.55,135.25 99.55,136.75 98.05,136.75"/>
<polygon id="0x5a0671208300" class="l68d44" points="101.25,135.25 102.75,135.25 102.75,136.75 101.25,136.75"/>
<polygon id="0x5a06712083d0" class="l68d44" points="104.45,135.25 105.95,135.25 105.95,136.75 104.45,136.75"/>
<polygon id="0x5a06712084a0" class="l68d44" points="107.65,135.25 109.15,135.25 109.15,136.75 107.65,136.75"/>
<polygon id="0x5a0671208570" class="l68d44" points="110.85,135.25 112.35,135.25 112.35,136.75 110.85,136.75"/>
<polygon id="0x5a0671208640" class="l68d44" points="254.55,130.15 256.05,130.15 256.05,131.65 254.55,131.65"/>
<polygon id="0x5a0671208710" class="l68d44" points="263.75,119.95 265.25,119.95 265.25,121.45 263.75,121.45"/>
<polygon id="0x5a06712087e0" class="l68d44" points="131.05,108.05 132.55,108.05 132.55,109.55 131.05,109.55"/>
<polygon id="0x5a06712088b0" class="l68d44" points="134.25,108.05 135.75,108.05 135.75,109.55 134.25,109.55"/>
<polygon id="0x5a0671208980" class="l68d44" points="137.45,108.05 138.95,108.05 138.95,109.55 137.45,109.55"/>
<polygon id="0x5a0671208a50" class="l68d44" points="140.65,108.05 142.15,108.05 142.15,109.55 140.65,109.55"/>
<polygon id="0x5a0671208b20" class="l68d44" points="143.85,108.05 145.35,108.05 145.35,109.55 143.85,109.55"/>
<polygon id="0x5a0671208bf0" class="l69d20" points="97.5,460.55 112.9,460.55 112.9,464.25 97.5,464.25"/>
<polygon id="0x5a0671208cc0" class="l69d20" points="130.5,433.35 145.9,433.35 145.9,437.05 130.5,437.05"/>
<polygon id="0x5a0671208d90" class="l69d20" points="97.5,406.15 112.9,406.15 112.9,409.85 97.5,409.85"/>
<polygon id="0x5a0671208e60" class="l69d20" points="130.5,378.95 145.9,378.95 145.9,382.65 130.5,382.65"/>
<polygon id="0x5a0671208f30" class="l69d20" points="97.5,351.75 112.9,351.75 112.9,355.45 97.5,355.45"/>
<polygon id="0x5a0671209000" class="l69d20" points="130.5,324.55 145.9,324.55 145.9,328.25 130.5,328.25"/>
<polygon id="0x5a06712090d0" class="l69d20" points="272.4,312.9 275,312.9 275,316.1 272.4,316.1"/>
<polygon id="0x5a06712091a0" class="l69d20" points="273,311.25 274.4,311.25 274.4,312.9 273,312.9"/>
<polygon id="0x5a0671205e70" class="l69d20" points="272.3,307.55 275.1,307.55 275.1,311.25 272.3,311.25"/>
<polygon id="0x5a0671205f40" class="l69d20" points="263.2,302.7 265.8,302.7 265.8,305.9 263.2,305.9"/>
<polygon id="0x5a0671206010" class="l69d20" points="97.5,297.35 112.9,297.35 112.9,301.05 97.5,301.05"/>
<polygon id="0x5a06712060e0" class="l69d20" points="254,278.9 256.6,278.9 256.6,282.1 254,282.1"/>
<polygon id="0x5a06712061b0" class="l69d20" points="130.5,270.15 145.9,270.15 145.9,273.85 130.5,273.85"/>
<polygon id="0x5a0671209a80" class="l69d20" points="97.5,242.95 112.9,242.95 112.9,246.65 97.5,246.65"/>
<polygon id="0x5a0671209b50" class="l69d20" points="130.5,215.75 145.9,215.75 145.9,219.45 130.5,219.45"/>
<polygon id="0x5a0671209c20" class="l69d20" points="97.5,188.55 112.9,188.55 112.9,192.25 97.5,192.25"/>
<polygon id="0x5a0671209cf0" class="l69d20" points="130.5,161.35 145.9,161.35 145.9,165.05 130.5,165.05"/>
<polygon id="0x5a0671209dc0" class="l69d20" points="97.5,134.15 112.9,134.15 112.9,137.85 97.5,137.85"/>
<polygon id="0x5a0671209e90" class="l69d20" points="254.6,132.5 256,132.5 256,278.9 254.6,278.9"/>
<polygon id="0x5a0671209f60" class="l69d20" points="254,129.3 256.6,129.3 256.6,132.5 254,132.5"/>
<polygon id="0x5a067120a030" class="l69d20" points="263.8,122.3 265.2,122.3 265.2,302.7 263.8,302.7"/>
<polygon id="0x5a067120a100" class="l69d20" points="272.4,277.25 275,277.25 275,278.7 272.4,278.7"/>
<polygon id="0x5a067120a1d0" class="l69d20" points="272.3,273.55 275.1,273.55 275.1,277.25 272.3,277.25"/>
<polygon id="0x5a067120a2a0" class="l69d20" points="263.2,119.1 265.8,119.1 265.8,122.3 263.2,122.3"/>
<polygon id="0x5a067120a370" class="l69d20" points="130.5,106.95 145.9,106.95 145.9,110.65 130.5,110.65"/>
<polygon id="0x5a067120a440" class="l69d44" points="98.2,461.4 100.2,461.4 100.2,463.4 98.2,463.4"/>
<polygon id="0x5a067120a510" class="l69d44" points="102.2,461.4 104.2,461.4 104.2,463.4 102.2,463.4"/>
<polygon id="0x5a067120a5e0" class="l69d44" points="106.2,461.4 108.2,461.4 108.2,463.4 106.2,463.4"/>
<polygon id="0x5a067120a6b0" class="l69d44" points="110.2,461.4 112.2,461.4 112.2,463.4 110.2,463.4"/>
<polygon id="0x5a067120a780" class="l69d44" points="131.2,434.2 133.2,434.2 133.2,436.2 131.2,436.2"/>
<polygon id="0x5a067120a850" class="l69d44" points="135.2,434.2 137.2,434.2 137.2,436.2 135.2,436.2"/>
<polygon id="0x5a067120a920" class="l69d44" points="139.2,434.2 141.2,434.2 141.2,436.2 139.2,436.2"/>
<polygon id="0x5a067120a9f0" class="l69d44" points="143.2,434.2 145.2,434.2 145.2,436.2 143.2,436.2"/>
<polygon id="0x5a067120aac0" class="l69d44" points="98.2,407 100.2,407 100.2,409 98.2,409"/>
<polygon id="0x5a067120ab90" class="l69d44" points="102.2,407 104.2,407 104.2,409 102.2,409"/>
<polygon id="0x5a067120ac60" class="l69d44" points="106.2,407 108.2,407 108.2,409 106.2,409"/>
<polygon id="0x5a067120ad30" class="l69d44" points="110.2,407 112.2,407 112.2,409 110.2,409"/>
<polygon id="0x5a067120ae00" class="l69d44" points="131.2,379.8 133.2,379.8 133.2,381.8 131.2,381.8"/>
<polygon id="0x5a067120aed0" class="l69d44" points="135.2,379.8 137.2,379.8 137.2,381.8 135.2,381.8"/>
<polygon id="0x5a067120afa0" class="l69d44" points="139.2,379.8 141.2,379.8 141.2,381.8 139.2,381.8"/>
<polygon id="0x5a067120b070" class="l69d44" points="143.2,379.8 145.2,379.8 145.2,381.8 143.2,381.8"/>
<polygon id="0x5a067120b140" class="l69d44" points="98.2,352.6 100.2,352.6 100.2,354.6 98.2,354.6"/>
<polygon id="0x5a067120b210" class="l69d44" points="102.2,352.6 104.2,352.6 104.2,354.6 102.2,354.6"/>
<polygon id="0x5a067120b2e0" class="l69d44" points="106.2,352.6 108.2,352.6 108.2,354.6 106.2,354.6"/>
<polygon id="0x5a067120b3b0" class="l69d44" points="110.2,352.6 112.2,352.6 112.2,354.6 110.2,354.6"/>
<polygon id="0x5a067120b480" class="l69d44" points="131.2,325.4 133.2,325.4 133.2,327.4 131.2,327.4"/>
<polygon id="0x5a067120b550" class="l69d44" points="135.2,325.4 137.2,325.4 137.2,327.4 135.2,327.4"/>
<polygon id="0x5a067120b620" class="l69d44" points="139.2,325.4 141.2,325.4 141.2,327.4 139.2,327.4"/>
<polygon id="0x5a067120b6f0" class="l69d44" points="143.2,325.4 145.2,325.4 145.2,327.4 143.2,327.4"/>
<polygon id="0x5a067120b7c0" class="l69d44" points="272.7,308.4 274.7,308.4 274.7,310.4 272.7,310.4"/>
<polygon id="0x5a067120b890" class="l69d44" points="98.2,298.2 100.2,298.2 100.2,300.2 98.2,300.2"/>
<polygon id="0x5a067120b960" class="l69d44" points="102.2,298.2 104.2,298.2 104.2,300.2 102.2,300.2"/>
<polygon id="0x5a067120ba30" class="l69d44" points="106.2,298.2 108.2,298.2 108.2,300.2 106.2,300.2"/>
<polygon id="0x5a067120bb00" class="l69d44" points="110.2,298.2 112.2,298.2 112.2,300.2 110.2,300.2"/>
<polygon id="0x5a067120bbd0" class="l69d44" points="272.7,274.4 274.7,274.4 274.7,276.4 272.7,276.4"/>
<polygon id="0x5a067120bca0" class="l69d44" points="131.2,271 133.2,271 133.2,273 131.2,273"/>
<polygon id="0x5a067120bd70" class="l69d44" points="135.2,271 137.2,271 137.2,273 135.2,273"/>
<polygon id="0x5a067120be40" class="l69d44" points="139.2,271 141.2,271 141.2,273 139.2,273"/>
<polygon id="0x5a067120bf10" class="l69d44" points="143.2,271 145.2,271 145.2,273 143.2,273"/>
<polygon id="0x5a067120bfe0" class="l69d44" points="98.2,243.8 100.2,243.8 100.2,245.8 98.2,245.8"/>
<polygon id="0x5a067120c0b0" class="l69d44" points="102.2,243.8 104.2,243.8 104.2,245.8 102.2,245.8"/>
<polygon id="0x5a067120c180" class="l69d44" points="106.2,243.8 108.2,243.8 108.2,245.8 106.2,245.8"/>
<polygon id="0x5a067120c250" class="l69d44" points="110.2,243.8 112.2,243.8 112.2,245.8 110.2,245.8"/>
<polygon id="0x5a067120c320" class="l69d44" points="131.2,216.6 133.2,216.6 133.2,218.6 131.2,218.6"/>
<polygon id="0x5a067120c3f0" class="l69d44" points="135.2,216.6 137.2,216.6 137.2,218.6 135.2,218.6"/>
<polygon id="0x5a067120c4c0" class="l69d44" points="139.2,216.6 141.2,216.6 141.2,218.6 139.2,218.6"/>
<polygon id="0x5a067120c590" class="l69d44" points="143.2,216.6 145.2,216.6 145.2,218.6 143.2,218.6"/>
<polygon id="0x5a067120c660" class="l69d44" points="98.2,189.4 100.2,189.4 100.2,191.4 98.2,191.4"/>
<polygon id="0x5a067120c730" class="l69d44" points="102.2,189.4 104.2,189.4 104.2,191.4 102.2,191.4"/>
<polygon id="0x5a067120c800" class="l69d44" points="106.2,189.4 108.2,189.4 108.2,191.4 106.2,191.4"/>
<polygon id="0x5a067120c8d0" class="l69d44" points="110.2,189.4 112.2,189.4 112.2,191.4 110.2,191.4"/>
<polygon id="0x5a067120c9a0" class="l69d44" points="131.2,162.2 133.2,162.2 133.2,164.2 131.2,164.2"/>
<polygon id="0x5a067120ca70" class="l69d44" points="135.2,162.2 137.2,162.2 137.2,164.2 135.2,164.2"/>
<polygon id="0x5a067120cb40" class="l69d44" points="139.2,162.2 141.2,162.2 141.2,164.2 139.2,164.2"/>
<polygon id="0x5a067120cc10" class="l69d44" points="143.2,162.2 145.2,162.2 145.2,164.2 143.2,164.2"/>
<polygon id="0x5a067120cce0" class="l69d44" points="98.2,135 100.2,135 100.2,137 98.2,137"/>
<polygon id="0x5a067120cdb0" class="l69d44" points="102.2,135 104.2,135 104.2,137 102.2,137"/>
<polygon id="0x5a067120ce80" class="l69d44" points="106.2,135 108.2,135 108.2,137 106.2,137"/>
<polygon id="0x5a067120cf50" class="l69d44" points="110.2,135 112.2,135 112.2,137 110.2,137"/>
<polygon id="0x5a067120d020" class="l69d44" points="131.2,107.8 133.2,107.8 133.2,109.8 131.2,109.8"/>
<polygon id="0x5a067120d0f0" class="l69d44" points="135.2,107.8 137.2,107.8 137.2,109.8 135.2,109.8"/>
<polygon id="0x5a067120d1c0" class="l69d44" points="139.2,107.8 141.2,107.8 141.2,109.8 139.2,109.8"/>
<polygon id="0x5a067120d290" class="l69d44" points="143.2,107.8 145.2,107.8 145.2,109.8 143.2,109.8"/>
<polygon id="0x5a067120d360" class="l70d20" points="97.3,460.75 113.1,460.75 113.1,464.05 97.3,464.05"/>
<polygon id="0x5a067120d430" class="l70d20" points="130.3,433.55 146.1,433.55 146.1,436.85 130.3,436.85"/>
<polygon id="0x5a067120d500" class="l70d20" points="97.3,406.35 113.1,406.35 113.1,409.65 97.3,409.65"/>
<polygon id="0x5a067120d5d0" class="l70d20" points="130.3,379.15 146.1,379.15 146.1,382.45 130.3,382.45"/>
<polygon id="0x5a067120d6a0" class="l70d20" points="97.3,351.95 113.1,351.95 113.1,355.25 97.3,355.25"/>
<polygon id="0x5a067120d770" class="l70d20" points="130.3,324.75 146.1,324.75 146.1,328.05 130.3,328.05"/>
<polygon id="0x5a067120d840" class="l70d20" points="272.05,310.9 275.35,310.9 275.35,311.05 272.05,311.05"/>
<polygon id="0x5a067120d910" class="l70d20" points="305,310.9 345,310.9 345,312.4 305,312.4"/>
<polygon id="0x5a067120d9e0" class="l70d20" points="272.05,307.9 345,307.9 345,310.9 272.05,310.9"/>
<polygon id="0x5a067120dab0" class="l70d20" points="272.05,307.75 275.35,307.75 275.35,307.9 272.05,307.9"/>
<polygon id="0x5a067120db80" class="l70d20" points="305,306.4 345,306.4 345,307.9 305,307.9"/>
<polygon id="0x5a067120dc50" class="l70d20" points="97.3,297.55 113.1,297.55 113.1,300.85 97.3,300.85"/>
<polygon id="0x5a067120dd20" class="l70d20" points="272.05,276.9 275.35,276.9 275.35,277.05 272.05,277.05"/>
<polygon id="0x5a067120ddf0" class="l70d20" points="305,276.9 345,276.9 345,278.4 305,278.4"/>
<polygon id="0x5a067120dec0" class="l70d20" points="272.05,273.9 345,273.9 345,276.9 272.05,276.9"/>
<polygon id="0x5a067120df90" class="l70d20" points="272.05,273.75 275.35,273.75 275.35,273.9 272.05,273.9"/>
<polygon id="0x5a067120e060" class="l70d20" points="130.3,270.35 146.1,270.35 146.1,273.65 130.3,273.65"/>
<polygon id="0x5a067120e130" class="l70d20" points="305,272.4 345,272.4 345,273.9 305,273.9"/>
<polygon id="0x5a067120e200" class="l70d20" points="97.3,243.15 113.1,243.15 113.1,246.45 97.3,246.45"/>
<polygon id="0x5a067120e2d0" class="l70d20" points="130.3,215.95 146.1,215.95 146.1,219.25 130.3,219.25"/>
<polygon id="0x5a067120e3a0" class="l70d20" points="97.3,188.75 113.1,188.75 113.1,192.05 97.3,192.05"/>
<polygon id="0x5a067120e470" class="l70d20" points="130.3,161.55 146.1,161.55 146.1,164.85 130.3,164.85"/>
<polygon id="0x5a067120e540" class="l70d20" points="97.3,134.35 113.1,134.35 113.1,137.65 97.3,137.65"/>
<polygon id="0x5a067120e610" class="l70d20" points="130.3,107.15 146.1,107.15 146.1,110.45 130.3,110.45"/>
<polygon id="0x5a067120e6e0" class="l70d44" points="98.2,461.4 100.2,461.4 100.2,463.4 98.2,463.4"/>
<polygon id="0x5a067120e7b0" class="l70d44" points="102.2,461.4 104.2,461.4 104.2,463.4 102.2,463.4"/>
<polygon id="0x5a067120e880" class="l70d44" points="106.2,461.4 108.2,461.4 108.2,463.4 106.2,463.4"/>
<polygon id="0x5a067120e950" class="l70d44" points="110.2,461.4 112.2,461.4 112.2,463.4 110.2,463.4"/>
<polygon id="0x5a067120ea20" class="l70d44" points="131.2,434.2 133.2,434.2 133.2,436.2 131.2,436.2"/>
<polygon id="0x5a067120eaf0" class="l70d44" points="135.2,434.2 137.2,434.2 137.2,436.2 135.2,436.2"/>
<polygon id="0x5a067120ebc0" class="l70d44" points="139.2,434.2 141.2,434.2 141.2,436.2 139.2,436.2"/>
<polygon id="0x5a067120ec90" class="l70d44" points="143.2,434.2 145.2,434.2 145.2,436.2 143.2,436.2"/>
<polygon id="0x5a067120ed60" class="l70d44" points="98.2,407 100.2,407 100.2,409 98.2,409"/>
<polygon id="0x5a067120ee30" class="l70d44" points="102.2,407 104.2,407 104.2,409 102.2,409"/>
<polygon id="0x5a067120ef00" class="l70d44" points="106.2,407 108.2,407 108.2,409 106.2,409"/>
<polygon id="0x5a067120efd0" class="l70d44" points="110.2,407 112.2,407 112.2,409 110.2,409"/>
<polygon id="0x5a067120f0a0" class="l70d44" points="131.2,379.8 133.2,379.8 133.2,381.8 131.2,381.8"/>
<polygon id="0x5a067120f170" class="l70d44" points="135.2,379.8 137.2,379.8 137.2,381.8 135.2,381.8"/>
<polygon id="0x5a067120f240" class="l70d44" points="139.2,379.8 141.2,379.8 141.2,381.8 139.2,381.8"/>
<polygon id="0x5a067120f310" class="l70d44" points="143.2,379.8 145.2,379.8 145.2,381.8 143.2,381.8"/>
<polygon id="0x5a067120f3e0" class="l70d44" points="98.2,352.6 100.2,352.6 100.2,354.6 98.2,354.6"/>
<polygon id="0x5a067120f4b0" class="l70d44" points="102.2,352.6 104.2,352.6 104.2,354.6 102.2,354.6"/>
<polygon id="0x5a067120f580" class="l70d44" points="106.2,352.6 108.2,352.6 108.2,354.6 106.2,354.6"/>
<polygon id="0x5a067120f650" class="l70d44" points="110.2,352.6 112.2,352.6 112.2,354.6 110.2,354.6"/>
<polygon id="0x5a067120f720" class="l70d44" points="131.2,325.4 133.2,325.4 133.2,327.4 131.2,327.4"/>
<polygon id="0x5a067120f7f0" class="l70d44" points="135.2,325.4 137.2,325.4 137.2,327.4 135.2,327.4"/>
<polygon id="0x5a067120f8c0" class="l70d44" points="139.2,325.4 141.2,325.4 141.2,327.4 139.2,327.4"/>
<polygon id="0x5a067120f990" class="l70d44" points="143.2,325.4 145.2,325.4 145.2,327.4 143.2,327.4"/>
<polygon id="0x5a067120fa60" class="l70d44" points="98.2,298.2 100.2,298.2 100.2,300.2 98.2,300.2"/>
<polygon id="0x5a067120fb30" class="l70d44" points="102.2,298.2 104.2,298.2 104.2,300.2 102.2,300.2"/>
<polygon id="0x5a067120fc00" class="l70d44" points="106.2,298.2 108.2,298.2 108.2,300.2 106.2,300.2"/>
<polygon id="0x5a067120fcd0" class="l70d44" points="110.2,298.2 112.2,298.2 112.2,300.2 110.2,300.2"/>
<polygon id="0x5a067120fda0" class="l70d44" points="131.2,271 133.2,271 133.2,273 131.2,273"/>
<polygon id="0x5a0671209270" class="l70d44" points="135.2,271 137.2,271 137.2,273 135.2,273"/>
<polygon id="0x5a0671209340" class="l70d44" points="139.2,271 141.2,271 141.2,273 139.2,273"/>
<polygon id="0x5a0671209410" class="l70d44" points="143.2,271 145.2,271 145.2,273 143.2,273"/>
<polygon id="0x5a06712094e0" class="l70d44" points="98.2,243.8 100.2,243.8 100.2,245.8 98.2,245.8"/>
<polygon id="0x5a06712095b0" class="l70d44" points="102.2,243.8 104.2,243.8 104.2,245.8 102.2,245.8"/>
<polygon id="0x5a0671209680" class="l70d44" points="106.2,243.8 108.2,243.8 108.2,245.8 106.2,245.8"/>
<polygon id="0x5a0671209750" class="l70d44" points="110.2,243.8 112.2,243.8 112.2,245.8 110.2,245.8"/>
<polygon id="0x5a0671209820" class="l70d44" points="131.2,216.6 133.2,216.6 133.2,218.6 131.2,218.6"/>
<polygon id="0x5a06712098f0" class="l70d44" points="135.2,216.6 137.2,216.6 137.2,218.6 135.2,218.6"/>
<polygon id="0x5a0671210e20" class="l70d44" points="139.2,216.6 141.2,216.6 141.2,218.6 139.2,218.6"/>
<polygon id="0x5a0671210e90" class="l70d44" points="143.2,216.6 145.2,216.6 145.2,218.6 143.2,218.6"/>
<polygon id="0x5a0671210f60" class="l70d44" points="98.2,189.4 100.2,189.4 100.2,191.4 98.2,191.4"/>
<polygon id="0x5a0671211030" class="l70d44" points="102.2,189.4 104.2,189.4 104.2,191.4 102.2,191.4"/>
<polygon id="0x5a0671211100" class="l70d44" points="106.2,189.4 108.2,189.4 108.2,191.4 106.2,191.4"/>
<polygon id="0x5a06712111d0" class="l70d44" points="110.2,189.4 112.2,189.4 112.2,191.4 110.2,191.4"/>
<polygon id="0x5a06712112a0" class="l70d44" points="131.2,162.2 133.2,162.2 133.2,164.2 131.2,164.2"/>
<polygon id="0x5a0671211370" class="l70d44" points="135.2,162.2 137.2,162.2 137.2,164.2 135.2,164.2"/>
<polygon id="0x5a0671211440" class="l70d44" points="139.2,162.2 141.2,162.2 141.2,164.2 139.2,164.2"/>
<polygon id="0x5a0671211510" class="l70d44" points="143.2,162.2 145.2,162.2 145.2,164.2 143.2,164.2"/>
<polygon id="0x5a06712115e0" class="l70d44" points="98.2,135 100.2,135 100.2,137 98.2,137"/>
<polygon id="0x5a06712116b0" class="l70d44" points="102.2,135 104.2,135 104.2,137 102.2,137"/>
<polygon id="0x5a0671211780" class="l70d44" points="106.2,135 108.2,135 108.2,137 106.2,137"/>
<polygon id="0x5a0671211850" class="l70d44" points="110.2,135 112.2,135 112.2,137 110.2,137"/>
<polygon id="0x5a0671211920" class="l70d44" points="131.2,107.8 133.2,107.8 133.2,109.8 131.2,109.8"/>
<polygon id="0x5a06712119f0" class="l70d44" points="135.2,107.8 137.2,107.8 137.2,109.8 135.2,109.8"/>
<polygon id="0x5a0671211ac0" class="l70d44" points="139.2,107.8 141.2,107.8 141.2,109.8 139.2,109.8"/>
<polygon id="0x5a0671211b90" class="l70d44" points="143.2,107.8 145.2,107.8 145.2,109.8 143.2,109.8"/>
<polygon id="0x5a0671211c60" class="l71d20" points="97.2,106.4 113.2,106.4 113.2,464.8 97.2,464.8"/>
<polygon id="0x5a0671211d30" class="l71d20" points="130.2,106.4 146.2,106.4 146.2,464.8 130.2,464.8"/>
<polygon id="0x5a06712122d0" class="l71d16" points="130.2,106.4 146.2,106.4 146.2,464.8 130.2,464.8"/>
<polygon id="0x5a0671212450" class="l71d16" points="97.2,106.4 113.2,106.4 113.2,464.8 97.2,464.8"/>
<polygon id="0x5a0671212660" class="l70d16" points="305,306.4 345,306.4 345,312.4 305,312.4"/>
<polygon id="0x5a06712127e0" class="l70d16" points="305,272.4 345,272.4 345,278.4 305,278.4"/>
<use transform="translate(69 108.8)" xlink:href="#sky130_ef_sc_hd__decap_12"/>
<use transform="translate(69 163.2) scale(1 -1)" xlink:href="#sky130_ef_sc_hd__decap_12"/>
<use transform="translate(55.2 108.8)" xlink:href="#sky130_fd_sc_hd__decap_3"/>
<use transform="translate(55.2 163.2) scale(1 -1)" xlink:href="#sky130_fd_sc_hd__decap_3"/>
<use transform="translate(124.2 108.8)" xlink:href="#sky130_ef_sc_hd__decap_12"/>
<use transform="translate(124.2 163.2) scale(1 -1)" xlink:href="#sky130_ef_sc_hd__decap_12"/>
<use transform="translate(179.4 108.8)" xlink:href="#sky130_fd_sc_hd__fill_1"/>
<use transform="translate(188.6 108.8)" xlink:href="#sky130_fd_sc_hd__decap_4"/>
<use transform="translate(207 108.8)" xlink:href="#sky130_fd_sc_hd__fill_1"/>
<use transform="translate(225.4 108.8)" xlink:href="#sky130_fd_sc_hd__decap_8"/>
<use transform="translate(179.4 163.2) scale(1 -1)" xlink:href="#sky130_ef_sc_hd__decap_12"/>
<use transform="translate(184 108.8)" xlink:href="#sky130_fd_sc_hd__tapvpwrvgnd_1"/>
<use transform="translate(225.4 108.8) rotate(180) scale(1 -1)" xlink:href="#sky130_fd_sc_hd__inv_2"/>
<use transform="translate(262.2 108.8)" xlink:href="#sky130_fd_sc_hd__decap_3"/>
<use transform="translate(234.6 163.2) scale(1 -1)" xlink:href="#sky130_fd_sc_hd__decap_8"/>
<use transform="translate(271.4 163.2) scale(1 -1)" xlink:href="#sky130_fd_sc_hd__fill_1"/>
<use transform="translate(289.8 108.8) rotate(180) scale(1 -1)" xlink:href="#sky130_fd_sc_hd__decap_3"/>
<use transform="translate(289.8 163.2) rotate(180)" xlink:href="#sky130_fd_sc_hd__decap_3"/>
<use transform="translate(69 163.2)" xlink:href="#sky130_ef_sc_hd__decap_12"/>
<use transform="translate(55.2 163.2)" xlink:href="#sky130_fd_sc_hd__decap_3"/>
<use transform="translate(124.2 163.2)" xlink:href="#sky130_ef_sc_hd__decap_12"/>
<use transform="translate(179.4 163.2)" xlink:href="#sky130_fd_sc_hd__fill_1"/>
<use transform="translate(188.6 163.2)" xlink:href="#sky130_ef_sc_hd__decap_12"/>
<use transform="translate(184 163.2)" xlink:href="#sky130_fd_sc_hd__tapvpwrvgnd_1"/>
<use transform="translate(243.8 163.2)" xlink:href="#sky130_fd_sc_hd__decap_6"/>
<use transform="translate(271.4 163.2)" xlink:href="#sky130_fd_sc_hd__fill_1"/>
<use transform="translate(289.8 163.2) rotate(180) scale(1 -1)" xlink:href="#sky130_fd_sc_hd__decap_3"/>
<use transform="translate(69 217.6) scale(1 -1)" xlink:href="#sky130_ef_sc_hd__decap_12"/>
<use transform="translate(55.2 217.6) scale(1 -1)" xlink:href="#sky130_fd_sc_hd__decap_3"/>
<use transform="translate(124.2 217.6) scale(1 -1)" xlink:href="#sky130_ef_sc_hd__decap_12"/>
<use transform="translate(179.4 217.6) scale(1 -1)" xlink:href="#sky130_ef_sc_hd__decap_12"/>
<use transform="translate(234.6 217.6) scale(1 -1)" xlink:href="#sky130_fd_sc_hd__decap_8"/>
<use transform="translate(271.4 217.6) scale(1 -1)" xlink:href="#sky130_fd_sc_hd__fill_1"/>
<use transform="translate(289.8 217.6) rotate(180)" xlink:href="#sky130_fd_sc_hd__decap_3"/>
<use transform="translate(69 217.6)" xlink:href="#sky130_ef_sc_hd__decap_12"/>
<use transform="translate(55.2 217.6)" xlink:href="#sky130_fd_sc_hd__decap_3"/>
<use transform="translate(124.2 217.6)" xlink:href="#sky130_ef_sc_hd__decap_12"/>
<use transform="translate(179.4 217.6)" xlink:href="#sky130_fd_sc_hd__fill_1"/>
<use transform="translate(188.6 217.6)" xlink:href="#sky130_ef_sc_hd__decap_12"/>
<use transform="translate(184 217.6)" xlink:href="#sky130_fd_sc_hd__tapvpwrvgnd_1"/>
<use transform="translate(243.8 217.6)" xlink:href="#sky130_fd_sc_hd__decap_6"/>
<use transform="translate(271.4 217.6)" xlink:href="#sky130_fd_sc_hd__fill_1"/>
<use transform="translate(289.8 217.6) rotate(180) scale(1 -1)" xlink:href="#sky130_fd_sc_hd__decap_3"/>
<use transform="translate(69 272) scale(1 -1)" xlink:href="#sky130_ef_sc_hd__decap_12"/>
<use transform="translate(55.2 272) scale(1 -1)" xlink:href="#sky130_fd_sc_hd__decap_3"/>
<use transform="translate(124.2 272) scale(1 -1)" xlink:href="#sky130_ef_sc_hd__decap_12"/>
<use transform="translate(179.4 272) scale(1 -1)" xlink:href="#sky130_ef_sc_hd__decap_12"/>
<use transform="translate(234.6 272) scale(1 -1)" xlink:href="#sky130_fd_sc_hd__decap_8"/>
<use transform="translate(271.4 272) scale(1 -1)" xlink:href="#sky130_fd_sc_hd__fill_1"/>
<use transform="translate(289.8 272) rotate(180)" xlink:href="#sky130_fd_sc_hd__decap_3"/>
<use transform="translate(69 272)" xlink:href="#sky130_ef_sc_hd__decap_12"/>
<use transform="translate(69 326.4) scale(1 -1)" xlink:href="#sky130_ef_sc_hd__decap_12"/>
<use transform="translate(55.2 272)" xlink:href="#sky130_fd_sc_hd__decap_3"/>
<use transform="translate(55.2 326.4) scale(1 -1)" xlink:href="#sky130_fd_sc_hd__decap_3"/>
<use transform="translate(124.2 272)" xlink:href="#sky130_ef_sc_hd__decap_12"/>
<use transform="translate(124.2 326.4) scale(1 -1)" xlink:href="#sky130_ef_sc_hd__decap_12"/>
<use transform="translate(179.4 272)" xlink:href="#sky130_fd_sc_hd__fill_1"/>
<use transform="translate(188.6 272)" xlink:href="#sky130_ef_sc_hd__decap_12"/>
<use transform="translate(179.4 326.4) scale(1 -1)" xlink:href="#sky130_ef_sc_hd__decap_12"/>
<use transform="translate(184 272)" xlink:href="#sky130_fd_sc_hd__tapvpwrvgnd_1"/>
<use transform="translate(243.8 272)" xlink:href="#sky130_fd_sc_hd__fill_1"/>
<use transform="translate(234.6 326.4) scale(1 -1)" xlink:href="#sky130_fd_sc_hd__decap_6"/>
<use transform="translate(289.8 272) rotate(180) scale(1 -1)" xlink:href="#sky130_fd_sc_hd__decap_3"/>
<use transform="translate(289.8 326.4) rotate(180)" xlink:href="#sky130_fd_sc_hd__decap_3"/>
<use transform="translate(276 326.4) rotate(180)" xlink:href="#sky130_fd_sc_hd__buf_1"/>
<use transform="translate(248.4 272)" xlink:href="#sky130_fd_sc_hd__clkbuf_4"/>
<use transform="translate(69 326.4)" xlink:href="#sky130_ef_sc_hd__decap_12"/>
<use transform="translate(55.2 326.4)" xlink:href="#sky130_fd_sc_hd__decap_3"/>
<use transform="translate(124.2 326.4)" xlink:href="#sky130_ef_sc_hd__decap_12"/>
<use transform="translate(179.4 326.4)" xlink:href="#sky130_fd_sc_hd__fill_1"/>
<use transform="translate(188.6 326.4)" xlink:href="#sky130_ef_sc_hd__decap_12"/>
<use transform="translate(184 326.4)" xlink:href="#sky130_fd_sc_hd__tapvpwrvgnd_1"/>
<use transform="translate(243.8 326.4)" xlink:href="#sky130_fd_sc_hd__decap_6"/>
<use transform="translate(271.4 326.4)" xlink:href="#sky130_fd_sc_hd__fill_1"/>
<use transform="translate(289.8 326.4) rotate(180) scale(1 -1)" xlink:href="#sky130_fd_sc_hd__decap_3"/>
<use transform="translate(69 380.8) scale(1 -1)" xlink:href="#sky130_ef_sc_hd__decap_12"/>
<use transform="translate(55.2 380.8) scale(1 -1)" xlink:href="#sky130_fd_sc_hd__decap_3"/>
<use transform="translate(124.2 380.8) scale(1 -1)" xlink:href="#sky130_ef_sc_hd__decap_12"/>
<use transform="translate(179.4 380.8) scale(1 -1)" xlink:href="#sky130_ef_sc_hd__decap_12"/>
<use transform="translate(234.6 380.8) scale(1 -1)" xlink:href="#sky130_fd_sc_hd__decap_8"/>
<use transform="translate(271.4 380.8) scale(1 -1)" xlink:href="#sky130_fd_sc_hd__fill_1"/>
<use transform="translate(289.8 380.8) rotate(180)" xlink:href="#sky130_fd_sc_hd__decap_3"/>
<use transform="translate(69 380.8)" xlink:href="#sky130_ef_sc_hd__decap_12"/>
<use transform="translate(55.2 380.8)" xlink:href="#sky130_fd_sc_hd__decap_3"/>
<use transform="translate(124.2 380.8)" xlink:href="#sky130_ef_sc_hd__decap_12"/>
<use transform="translate(179.4 380.8)" xlink:href="#sky130_fd_sc_hd__fill_1"/>
<use transform="translate(188.6 380.8)" xlink:href="#sky130_ef_sc_hd__decap_12"/>
<use transform="translate(184 380.8)" xlink:href="#sky130_fd_sc_hd__tapvpwrvgnd_1"/>
<use transform="translate(243.8 380.8)" xlink:href="#sky130_fd_sc_hd__decap_6"/>
<use transform="translate(271.4 380.8)" xlink:href="#sky130_fd_sc_hd__fill_1"/>
<use transform="translate(289.8 380.8) rotate(180) scale(1 -1)" xlink:href="#sky130_fd_sc_hd__decap_3"/>
<use transform="translate(69 435.2) scale(1 -1)" xlink:href="#sky130_ef_sc_hd__decap_12"/>
<use transform="translate(55.2 435.2) scale(1 -1)" xlink:href="#sky130_fd_sc_hd__decap_3"/>
<use transform="translate(124.2 435.2) scale(1 -1)" xlink:href="#sky130_ef_sc_hd__decap_12"/>
<use transform="translate(179.4 435.2) scale(1 -1)" xlink:href="#sky130_ef_sc_hd__decap_12"/>
<use transform="translate(234.6 435.2) scale(1 -1)" xlink:href="#sky130_fd_sc_hd__decap_8"/>
<use transform="translate(271.4 435.2) scale(1 -1)" xlink:href="#sky130_fd_sc_hd__fill_1"/>
<use transform="translate(289.8 435.2) rotate(180)" xlink:href="#sky130_fd_sc_hd__decap_3"/>
<use transform="translate(69 435.2)" xlink:href="#sky130_ef_sc_hd__decap_12"/>
<use transform="translate(55.2 435.2)" xlink:href="#sky130_fd_sc_hd__decap_3"/>
<use transform="translate(124.2 435.2)" xlink:href="#sky130_ef_sc_hd__decap_12"/>
<use transform="translate(179.4 435.2)" xlink:href="#sky130_fd_sc_hd__fill_1"/>
<use transform="translate(188.6 435.2)" xlink:href="#sky130_ef_sc_hd__decap_12"/>
<use transform="translate(184 435.2)" xlink:href="#sky130_fd_sc_hd__tapvpwrvgnd_1"/>
<use transform="translate(243.8 435.2)" xlink:href="#sky130_fd_sc_hd__decap_6"/>
<use transform="translate(271.4 435.2)" xlink:href="#sky130_fd_sc_hd__fill_1"/>
<use transform="translate(289.8 435.2) rotate(180) scale(1 -1)" xlink:href="#sky130_fd_sc_hd__decap_3"/>
<text id="0x5a0671211e00" class="l68t5" text-anchor="start" dominant-baseline="text-before-edge" transform="translate(172.5 435.2) scale(1 -1)">VGND</text>
<text id="0x5a0671211eb0" class="l68t5" text-anchor="start" dominant-baseline="text-before-edge" transform="translate(172.5 462.4) scale(1 -1)">VPWR</text>
<text id="0x5a0671211f60" class="l69t5" text-anchor="start" dominant-baseline="text-before-edge" transform="translate(273.7 311.95) scale(1 -1)">in</text>
<text id="0x5a0671212010" class="l68t5" text-anchor="start" dominant-baseline="text-before-edge" transform="translate(243.8 120.7) scale(1 -1)">net1</text>
<text id="0x5a06712120c0" class="l68t5" text-anchor="start" dominant-baseline="text-before-edge" transform="translate(236.9 130.9) scale(1 -1)">net2</text>
<text id="0x5a0671212170" class="l68t5" text-anchor="start" dominant-baseline="text-before-edge" transform="translate(271.4 277.1) scale(1 -1)">out</text>
<text id="0x5a0671212220" class="l71t5" text-anchor="middle" dominant-baseline="central" transform="translate(138.2 285.6) rotate(90) scale(1.2) scale(1 -1)">VGND</text>
<text id="0x5a06712123a0" class="l71t5" text-anchor="middle" dominant-baseline="central" transform="translate(105.2 285.6) rotate(90) scale(1.2) scale(1 -1)">VPWR</text>
<text id="0x5a0671212520" class="l70t5" text-anchor="middle" dominant-baseline="central" transform="translate(325 309.4) scale(0.3) scale(1 -1)">in</text>
<text id="0x5a0671212730" class="l70t5" text-anchor="middle" dominant-baseline="central" transform="translate(325 275.4) scale(0.3) scale(1 -1)">out</text>
</g>
</svg>